<svg xmlns="http://www.w3.org/2000/svg" viewBox="0 0 500 500"><g id="freepik--background-complete--inject-62"><path d="M418.1,263.26c-12.78-8.87-15.72-25.4-15.26-40.26.07-2.48-.21-5.1,1-7.28s3.92-3.67,6.14-2.64c1.85.87,2.66,3,3.69,4.78a14.55,14.55,0,0,0,5.84,5.54c1.58.81,3.54,1.31,5.1.44,2.13-1.19,2.37-4.14,2.35-6.61q-.06-6.9-.13-13.8a23.13,23.13,0,0,1,.73-7.33,7.68,7.68,0,0,1,4.79-5.19c2.35-.66,5.25.68,5.76,3.1a24.07,24.07,0,0,1,.08,3.07,2.61,2.61,0,0,0,1.52,2.44c1,.28,2-.42,2.71-1.14a32.67,32.67,0,0,0,5.86-8.92,46.19,46.19,0,0,1,5.47-9.19c2.3-2.72,5.49-4.89,9-5.1s7.31,2,8.21,5.43-1.11,7-3.31,9.83a55,55,0,0,1-11.43,11,4.51,4.51,0,0,0-1.92,2.07c-.53,1.64,1,3.27,2.66,3.81,1.84.61,3.84.41,5.76.63s4,1.06,4.75,2.88c1,2.52-1.08,5.17-3.15,6.91a47.25,47.25,0,0,1-13.95,8.1,15.94,15.94,0,0,0-5.18,2.54c-1.46,1.28-2.33,3.5-1.44,5.23s3.16,2.29,5.06,1.93,3.6-1.39,5.41-2.08c3.38-1.29,7.76-1.07,10,1.85a7.83,7.83,0,0,1,.85,6.9,18.1,18.1,0,0,1-3.73,6.11,47.31,47.31,0,0,1-20.21,14.3c-7.86,2.75-15.15,3.51-23,.68" style="fill:#f5f5f5"></path><path d="M421.91,253.93a220.51,220.51,0,0,1,8.7-23.83l2.6-6.13c.86-2,1.71-4,2.67-5.9a111.73,111.73,0,0,1,6.1-10.6c2.1-3.27,4.22-6.3,6.22-9.12s3.93-5.41,5.78-7.7a87.14,87.14,0,0,1,9.52-10.13c1.22-1.1,2.18-1.92,2.85-2.48l.76-.62.27-.2a2.12,2.12,0,0,1-.24.24l-.73.66c-.65.57-1.6,1.41-2.79,2.54a91.76,91.76,0,0,0-9.39,10.2c-1.83,2.29-3.73,4.89-5.72,7.71s-4.09,5.86-6.18,9.13a113.57,113.57,0,0,0-6.06,10.57c-.94,1.89-1.78,3.86-2.64,5.88s-1.72,4.06-2.6,6.13a226,226,0,0,0-8.72,23.77" style="fill:#e0e0e0"></path><path d="M436,218.05a5,5,0,0,1-.25-1.05c-.13-.68-.29-1.68-.46-2.9-.36-2.46-.74-5.87-1.14-9.63s-.82-7.15-1.21-9.6c-.2-1.22-.36-2.21-.49-2.89a4.88,4.88,0,0,1-.14-1.07,4.8,4.8,0,0,1,.31,1c.18.68.4,1.66.63,2.88.48,2.44.95,5.84,1.35,9.6s.74,7.07,1,9.63c.13,1.16.24,2.14.33,2.92A5.44,5.44,0,0,1,436,218.05Z" style="fill:#e0e0e0"></path><path d="M467.71,212a6.5,6.5,0,0,1-1.26.16c-.81.07-2,.18-3.44.35-2.91.32-6.91.91-11.29,1.75s-8.31,1.78-11.14,2.54c-1.41.37-2.55.7-3.34.92a6.48,6.48,0,0,1-1.23.31,6.69,6.69,0,0,1,1.18-.48c.77-.27,1.9-.65,3.31-1.06,2.81-.85,6.74-1.83,11.14-2.69A111.66,111.66,0,0,1,463,212.21c1.46-.14,2.65-.19,3.47-.21A7.8,7.8,0,0,1,467.71,212Z" style="fill:#e0e0e0"></path><path d="M422.29,253.35a1.92,1.92,0,0,1-.21-.39l-.55-1.15c-.47-1-1.11-2.46-1.88-4.27-1.54-3.63-3.52-8.71-5.62-14.35s-4-10.73-5.48-14.38l-1.75-4.33-.47-1.18a1.33,1.33,0,0,1-.13-.43,2.23,2.23,0,0,1,.22.39c.14.31.32.69.54,1.15.47,1,1.11,2.45,1.88,4.27,1.55,3.63,3.52,8.71,5.62,14.35s4,10.73,5.48,14.39l1.75,4.32.47,1.18A1.33,1.33,0,0,1,422.29,253.35Z" style="fill:#e0e0e0"></path><path d="M464.41,239.63s-.14.07-.42.17l-1.22.42-4.51,1.47c-3.81,1.25-9.05,3-14.83,5s-11.05,3.72-14.89,4.89c-1.92.59-3.47,1-4.55,1.34l-1.25.33a2.32,2.32,0,0,1-.45.09,1.48,1.48,0,0,1,.42-.18l1.23-.41,4.5-1.48c3.81-1.25,9.05-3,14.84-5s11.05-3.72,14.88-4.89c1.92-.58,3.48-1,4.56-1.33l1.25-.33A1.23,1.23,0,0,1,464.41,239.63Z" style="fill:#e0e0e0"></path><path d="M24.82,121.06s-9.26,2.53-1.3,22.48,13.81,30,13.81,30,1.31,4.58-2.47,4.92S23,176.75,20.91,181.15c-2.16,4.56.86,9.34,7.46,13.89s20.68,15.07,22,16,2.38,3.12-.16,3.77-21.16.86-20.53,9.69,21.09,18.5,23.31,19.6,2.67,2.12,2.37,3.37-6.57.73-11.86,1S32.07,250,32.86,255.08s12.37,16.62,42.55,22.43l14.16,1.78L98.41,268c17.45-25.3,17.61-41.66,14.62-45.83s-8.2-.79-12.17,2.73-8.07,8.27-9.16,7.59-1.48-1.72-.67-4.06,8.62-23.58,2.88-30.32-19.17,6.16-21.43,7.48-3-1-2.76-2.57,2.92-18.94,4.43-26.81.31-13.4-4.43-15.14c-4.57-1.68-8.88,5.46-11.82,7.87s-5.21-1.78-5.21-1.78-2.87-11.28-11.19-31.09-16.87-15-16.87-15" style="fill:#ebebeb"></path><path d="M90,282.7c-6-14.57-16.37-40.64-25.34-63s-17.11-42.55-23.09-57.15l-7.09-17.28-1.93-4.7-.49-1.23a4,4,0,0,1-.15-.42s.07.14.19.41.31.69.53,1.21c.47,1.08,1.14,2.65,2,4.67,1.73,4.05,4.2,9.94,7.22,17.22,6,14.57,14.24,34.77,23.21,57.1s19.24,48.43,25.22,63" style="fill:#e0e0e0"></path><path d="M32.09,184.49a5.46,5.46,0,0,1,1,.37c.61.26,1.48.67,2.55,1.17,2.14,1,5.07,2.5,8.26,4.2L52,194.6l2.48,1.3a4.84,4.84,0,0,1,.9.52,4.17,4.17,0,0,1-1-.36c-.61-.26-1.48-.67-2.55-1.18-2.13-1-5-2.57-8.23-4.26l-8.19-4.31L33,185A4.56,4.56,0,0,1,32.09,184.49Z" style="fill:#e0e0e0"></path><path d="M56.46,195.6c-.11,0,2.68-6.21,6.24-13.75s6.52-13.62,6.63-13.57S66.65,174.49,63.1,182,56.57,195.65,56.46,195.6Z" style="fill:#e0e0e0"></path><path d="M68.69,230.52a5.59,5.59,0,0,1,.66-.82l1.9-2.15c1.6-1.81,3.79-4.32,6.11-7.19s4.35-5.52,5.8-7.46l1.71-2.29a5,5,0,0,1,.67-.81,4.43,4.43,0,0,1-.53.91c-.36.57-.91,1.38-1.6,2.38-1.38,2-3.37,4.68-5.7,7.55s-4.57,5.36-6.23,7.13c-.83.87-1.52,1.58-2,2S68.72,230.55,68.69,230.52Z" style="fill:#e0e0e0"></path><path d="M44.44,225.33a4.08,4.08,0,0,1,1,.11l2.61.45c2.2.4,5.23,1,8.57,1.65s6.37,1.31,8.56,1.79l2.58.59a4.16,4.16,0,0,1,.93.27,4.37,4.37,0,0,1-1-.1l-2.61-.45c-2.19-.41-5.23-1-8.57-1.66s-6.37-1.3-8.55-1.78l-2.58-.6A4,4,0,0,1,44.44,225.33Z" style="fill:#e0e0e0"></path><path d="M51.32,257.53a7.3,7.3,0,0,1,1.24.15l3.35.57c2.82.49,6.71,1.21,11,2s8.18,1.59,11,2.17l3.32.7a6.73,6.73,0,0,1,1.2.32,6.2,6.2,0,0,1-1.23-.15l-3.35-.57c-2.82-.49-6.71-1.21-11-2s-8.18-1.59-11-2.17l-3.32-.7A7.45,7.45,0,0,1,51.32,257.53Z" style="fill:#e0e0e0"></path><path d="M81.72,263.12a8.56,8.56,0,0,1,.81-1.07l2.3-2.8c2-2.38,4.62-5.66,7.47-9.38s5.35-7.13,7.14-9.62l2.12-2.95a7.41,7.41,0,0,1,.82-1.06,8.11,8.11,0,0,1-.68,1.15c-.46.73-1.14,1.77-2,3-1.72,2.54-4.18,6-7,9.71s-5.57,7-7.58,9.31c-1,1.16-1.83,2.09-2.41,2.72A7.77,7.77,0,0,1,81.72,263.12Z" style="fill:#e0e0e0"></path><path d="M135.2,430s-6,4.57-.25,10.61a.47.47,0,0,0,.38.16l52.43-.3s4.48-5,.77-10.81Z" style="fill:#ebebeb"></path><path d="M176.18,434.8c0,.06-6.53.11-14.58.11S147,434.86,147,434.8s6.53-.1,14.59-.1S176.18,434.74,176.18,434.8Z" style="fill:#e0e0e0"></path><path d="M168,436.7c0,.06-3.07.11-6.85.11s-6.86-.05-6.86-.11,3.07-.11,6.86-.11S168,436.64,168,436.7Z" style="fill:#e0e0e0"></path><path d="M181.54,440.33s.11-.6.27-1.57a22,22,0,0,0,.31-3.83,23,23,0,0,0-.38-3.82c-.18-1-.34-1.56-.31-1.56s.07.13.16.4.19.65.3,1.13a18.5,18.5,0,0,1,.07,7.7c-.1.49-.2.88-.28,1.14A2.29,2.29,0,0,1,181.54,440.33Z" style="fill:#e0e0e0"></path><path d="M185.45,429.62a2.62,2.62,0,0,1,.23.39,4,4,0,0,1,.24.47,6,6,0,0,1,.26.64,10.83,10.83,0,0,1,.5,1.74,12.38,12.38,0,0,1,.23,2.2,12.64,12.64,0,0,1-.19,2.21,11.18,11.18,0,0,1-.47,1.75c-.08.25-.18.46-.26.65s-.16.34-.23.47a1.86,1.86,0,0,1-.22.38s.25-.58.57-1.55a12.38,12.38,0,0,0,.59-3.91,13.2,13.2,0,0,0-.21-2.17,12.46,12.46,0,0,0-.45-1.72C185.71,430.2,185.41,429.64,185.45,429.62Z" style="fill:#e0e0e0"></path><path d="M143.48,440.4s-.1-.12-.25-.35a4.17,4.17,0,0,1-.24-.44,4.24,4.24,0,0,1-.28-.6,9,9,0,0,1-.51-1.65,10.73,10.73,0,0,1-.21-2.12,11.16,11.16,0,0,1,.26-2.1,8.91,8.91,0,0,1,.56-1.64,4.79,4.79,0,0,1,.3-.6,3.27,3.27,0,0,1,.25-.43c.15-.23.24-.35.26-.34s-.31.53-.67,1.43a10.39,10.39,0,0,0-.51,1.62,11,11,0,0,0-.23,2.07,10.36,10.36,0,0,0,.18,2.07,9.18,9.18,0,0,0,.46,1.63C143.19,439.86,143.51,440.38,143.48,440.4Z" style="fill:#e0e0e0"></path><path d="M137.82,441.68s-.11-.13-.27-.4a4,4,0,0,1-.28-.49,7.46,7.46,0,0,1-.31-.68,10.06,10.06,0,0,1-.6-1.85,12.16,12.16,0,0,1-.3-2.36,12.69,12.69,0,0,1,.19-2.38,11.38,11.38,0,0,1,.52-1.88c.08-.26.2-.48.28-.69a5.6,5.6,0,0,1,.26-.5,2.24,2.24,0,0,1,.25-.41s-.3.62-.65,1.65a12.87,12.87,0,0,0-.47,1.86,14.38,14.38,0,0,0-.17,2.34,13.64,13.64,0,0,0,.28,2.33,12,12,0,0,0,.54,1.84C137.49,441.08,137.85,441.66,137.82,441.68Z" style="fill:#e0e0e0"></path><path d="M185.84,456.47v10H166.43v-10Z" style="fill:#ebebeb"></path><path d="M123.14,461.58c0,.08,0,.17,0,.26a5.75,5.75,0,0,0,5.78,5.38h57.82v-.72H173a5,5,0,0,1-5-5h0a5,5,0,0,1,5-5h13.73V455.4l-57.84.2A5.78,5.78,0,0,0,123.14,461.58Z" style="fill:#e0e0e0"></path><path d="M185.84,461.62c0,.06-4,.1-8.91.1s-8.92,0-8.92-.1,4-.11,8.92-.11S185.84,461.56,185.84,461.62Z" style="fill:#e0e0e0"></path><path d="M185.56,463.88c0,.06-3.78.1-8.44.1s-8.43,0-8.43-.1,3.77-.11,8.43-.11S185.56,463.82,185.56,463.88Z" style="fill:#e0e0e0"></path><path d="M185.84,465.94c0,.06-3.4.11-7.58.11s-7.59-.05-7.59-.11,3.4-.1,7.59-.1S185.84,465.89,185.84,465.94Z" style="fill:#e0e0e0"></path><path d="M185.84,459.59c0,.05-3.91.1-8.73.1s-8.74-.05-8.74-.1,3.91-.11,8.74-.11S185.84,459.53,185.84,459.59Z" style="fill:#e0e0e0"></path><path d="M185.56,457.55c0,.06-3.48.11-7.77.11s-7.78-.05-7.78-.11,3.48-.1,7.78-.1S185.56,457.5,185.56,457.55Z" style="fill:#e0e0e0"></path><path d="M130.14,455.76a16.12,16.12,0,0,0-1.22,1.46,7.43,7.43,0,0,0,.1,8.6,11.66,11.66,0,0,0,1.26,1.43,2,2,0,0,1-.42-.3,6.87,6.87,0,0,1-1-1,7.3,7.3,0,0,1-.11-8.77,6.78,6.78,0,0,1,.94-1.06A2.51,2.51,0,0,1,130.14,455.76Z" style="fill:#f5f5f5"></path><path d="M128.19,455.55A11.37,11.37,0,0,0,127,457a7.43,7.43,0,0,0,.1,8.6,14.17,14.17,0,0,0,1.26,1.43,2,2,0,0,1-.41-.31,6.68,6.68,0,0,1-1-1,7.33,7.33,0,0,1-.1-8.78,6.58,6.58,0,0,1,.94-1.05A2.08,2.08,0,0,1,128.19,455.55Z" style="fill:#f5f5f5"></path><path d="M167.48,455.76a13.51,13.51,0,0,0-1.23,1.46,7.69,7.69,0,0,0-1.32,4.32,7.57,7.57,0,0,0,1.42,4.28,12.79,12.79,0,0,0,1.26,1.43,2,2,0,0,1-.42-.3,6.87,6.87,0,0,1-1-1,7.34,7.34,0,0,1-.11-8.77,6.75,6.75,0,0,1,.95-1.06A2.08,2.08,0,0,1,167.48,455.76Z" style="fill:#f5f5f5"></path><path d="M165.52,455.55a12.46,12.46,0,0,0-1.23,1.46,7.68,7.68,0,0,0-1.32,4.31,7.79,7.79,0,0,0,1.42,4.29,12.16,12.16,0,0,0,1.27,1.43,1.67,1.67,0,0,1-.42-.31,6.68,6.68,0,0,1-1-1,7.33,7.33,0,0,1-.1-8.78,6.58,6.58,0,0,1,.94-1.05A2.08,2.08,0,0,1,165.52,455.55Z" style="fill:#f5f5f5"></path><path d="M136.72,463c0-1.36,0-2.72-.05-4.08a3.07,3.07,0,0,0-.14-1.05,1,1,0,0,0-.78-.66,1.55,1.55,0,0,0-1.66.79,3.79,3.79,0,0,0-.4,2,28.81,28.81,0,0,0,.15,3.22,4,4,0,0,0,.38,1.48,1.23,1.23,0,0,0,2.34-.2A4,4,0,0,0,136.72,463Z" style="fill:#f5f5f5"></path><path d="M159.18,461.81c0,.06-4.18.11-9.34.11s-9.33-.05-9.33-.11,4.18-.1,9.33-.1S159.18,461.75,159.18,461.81Z" style="fill:#f5f5f5"></path><polygon points="132.85 455.36 132.74 445.85 137.92 445.85 138.1 455.36 132.85 455.36" style="fill:#f5f5f5"></polygon><path d="M137.61,447.54a13.23,13.23,0,0,1-2.4.11,13.39,13.39,0,0,1-2.41-.11,15.34,15.34,0,0,1,2.41-.1A15.16,15.16,0,0,1,137.61,447.54Z" style="fill:#e0e0e0"></path><path d="M137.61,449a13.23,13.23,0,0,1-2.4.11,13.39,13.39,0,0,1-2.41-.11,14,14,0,0,1,2.41-.1A13.85,13.85,0,0,1,137.61,449Z" style="fill:#e0e0e0"></path><path d="M137.61,450.48a13.23,13.23,0,0,1-2.4.11,13.39,13.39,0,0,1-2.41-.11,13.39,13.39,0,0,1,2.41-.11A13.23,13.23,0,0,1,137.61,450.48Z" style="fill:#e0e0e0"></path><path d="M137.61,452a13.85,13.85,0,0,1-2.4.1,14,14,0,0,1-2.41-.1,13.39,13.39,0,0,1,2.41-.11A13.23,13.23,0,0,1,137.61,452Z" style="fill:#e0e0e0"></path><path d="M137.61,453.42a15.16,15.16,0,0,1-2.4.1,15.34,15.34,0,0,1-2.41-.1,13.39,13.39,0,0,1,2.41-.11A13.23,13.23,0,0,1,137.61,453.42Z" style="fill:#e0e0e0"></path><path d="M132.47,445.6h57.38a27.3,27.3,0,0,1,0,10.28H132.71v-.7h3.49a1.65,1.65,0,0,0,1.65-1.65v-5.69a1.65,1.65,0,0,0-1.65-1.65h-3.73Z" style="fill:#ebebeb"></path><path d="M146,450.75h1a.16.16,0,0,1,.1,0,.2.2,0,0,1,.11.18.35.35,0,0,1,0,.06,2.33,2.33,0,0,1-.07.25,2.58,2.58,0,0,1-.6,1.08,1.12,1.12,0,0,1-.81.42h-.12a1,1,0,0,1-.65-.47,2.19,2.19,0,0,1-.28-1.16,2.94,2.94,0,0,1,.11-.82,2.72,2.72,0,0,1,.57-1.11,1.18,1.18,0,0,1,.86-.46.74.74,0,0,1,.36.09,1.13,1.13,0,0,1,.56.7.16.16,0,0,1,0,.09.17.17,0,0,1,0,.1.2.2,0,0,1-.18.11h-.06a.23.23,0,0,1-.14-.13v0a1.23,1.23,0,0,0-.11-.23.56.56,0,0,0-.46-.27.59.59,0,0,0-.32.11,1.77,1.77,0,0,0-.52.76,2.8,2.8,0,0,0-.23,1.08,1.9,1.9,0,0,0,.17.84.56.56,0,0,0,.5.38.71.71,0,0,0,.46-.28,2.45,2.45,0,0,0,.49-.89H146c-.15,0-.23-.1-.23-.23a.19.19,0,0,1,0-.07A.21.21,0,0,1,146,450.75Z" style="fill:#fafafa"></path><path d="M149.29,448.88l0,.07c0,.14.26,1.32.67,3.55a.11.11,0,0,1,0,.05.23.23,0,0,1,0,.11.18.18,0,0,1-.17.1h0a.18.18,0,0,1-.16-.14l-.23-1.18H148.2l-.56,1.18,0,0a.22.22,0,0,1-.18.1.2.2,0,0,1-.11,0,.2.2,0,0,1-.09-.17.13.13,0,0,1,0-.06,4.24,4.24,0,0,1,.17-.39c.83-1.8,1.32-2.87,1.48-3.19a.25.25,0,0,1,.2-.15A.24.24,0,0,1,149.29,448.88Zm-.26.79L148.4,451h.9Z" style="fill:#fafafa"></path><path d="M152.49,452.76h-1.73a.23.23,0,0,1-.11,0,.35.35,0,0,1-.1-.22h0q0-.11.48-3.54s0-.05,0-.07a.19.19,0,0,1,.19-.13l.09,0a.2.2,0,0,1,.11.19c0,.15-.05.48-.12,1-.19,1.51-.3,2.31-.31,2.39h1.47l.11,0a.19.19,0,0,1,.13.19.15.15,0,0,1,0,.07A.21.21,0,0,1,152.49,452.76Z" style="fill:#fafafa"></path><path d="M154.86,448.88a.25.25,0,0,0,0,.07c0,.14.27,1.32.68,3.55a.43.43,0,0,0,0,.05.23.23,0,0,1,0,.11.19.19,0,0,1-.17.1h0a.17.17,0,0,1-.15-.14l-.23-1.18h-1.18l-.57,1.18a.05.05,0,0,1,0,0,.21.21,0,0,1-.17.1l-.12,0a.2.2,0,0,1-.09-.17.13.13,0,0,1,0-.06l.18-.39c.82-1.8,1.32-2.87,1.48-3.19a.22.22,0,0,1,.2-.15A.25.25,0,0,1,154.86,448.88Zm-.26.79L154,451h.9Z" style="fill:#fafafa"></path><path d="M157.61,450.92c.14.37.24.66.31.86q.27.75.27.78a.19.19,0,0,1-.21.2.19.19,0,0,1-.17-.13.46.46,0,0,0,0-.09c-.09-.22-.25-.62-.46-1.22l-1,1.34a.21.21,0,0,1-.18.1l-.11,0a.21.21,0,0,1-.1-.18.06.06,0,0,1,0,0,.35.35,0,0,1,.1-.17c.33-.42.69-.93,1.09-1.51a3.43,3.43,0,0,1-.12-.33c-.37-1-.56-1.49-.56-1.53a.19.19,0,0,1,0-.1.18.18,0,0,1,.17-.11.21.21,0,0,1,.19.12l.58,1.56,1.15-1.57a.21.21,0,0,1,.18-.1.16.16,0,0,1,.1,0,.19.19,0,0,1,.1.18.36.36,0,0,1,0,.1Z" style="fill:#fafafa"></path><path d="M161.89,448.79l.1,0a.25.25,0,0,1,.11.18c-.29,2.23-.44,3.44-.47,3.62a2.33,2.33,0,0,1-.37.95,1.36,1.36,0,0,1-1.15.56,1.3,1.3,0,0,1-.55-.15,1.16,1.16,0,0,1-.61-.53.19.19,0,0,1,0-.1.17.17,0,0,1,0-.1.2.2,0,0,1,.18-.11.21.21,0,0,1,.16.09,1.1,1.1,0,0,0,.88.5.87.87,0,0,0,.69-.35,1.88,1.88,0,0,0,.38-1.08,1.1,1.1,0,0,1-.26.27,1,1,0,0,1-.62.2h-.11a.93.93,0,0,1-.66-.47,2.16,2.16,0,0,1-.29-1.15c0-.21,0-.43,0-.65a14.12,14.12,0,0,1,.24-1.49s0,0,0-.06a.19.19,0,0,1,.19-.14.19.19,0,0,1,.1,0,.17.17,0,0,1,.1.16,7.84,7.84,0,0,1-.09.79,11.7,11.7,0,0,0-.14,1.2,2.27,2.27,0,0,0,.16.94q.16.42.51.42h.07a1,1,0,0,0,.51-.42,2.36,2.36,0,0,0,.43-1l.26-2,0-.09A.2.2,0,0,1,161.89,448.79Z" style="fill:#fafafa"></path><path d="M187.69,456c-.06,0-.11-2.36-.11-5.27s0-5.27.11-5.27.11,2.36.11,5.27S187.75,456,187.69,456Z" style="fill:#f5f5f5"></path><path d="M140.74,456c-.06,0-.11-2.36-.11-5.27s.05-5.27.11-5.27.1,2.36.1,5.27S140.8,456,140.74,456Z" style="fill:#e0e0e0"></path><path d="M188.7,456c-.06,0-.11-2.36-.11-5.27s0-5.27.11-5.27.1,2.36.1,5.27S188.76,456,188.7,456Z" style="fill:#f5f5f5"></path><path d="M139.8,456c-.06,0-.11-2.36-.11-5.27s.05-5.27.11-5.27.1,2.36.1,5.27S139.86,456,139.8,456Z" style="fill:#e0e0e0"></path><path d="M173.78,447.2h0l6.06,4.89.06,0-.07,0-.81.21-5.12,1.34h0l-4.64-2-1.31-.57-.35-.15-.09,0h0l.09,0,.35.14,1.32.55,4.65,1.95h0l5.12-1.35.8-.21v.06l-6-4.91h0" style="fill:#e0e0e0"></path><polygon points="179.28 451.32 179.62 451.63 180.06 451.53 179.87 451.94 180.09 452.33 179.64 452.28 179.34 452.62 179.26 452.17 178.84 451.99 179.24 451.77 179.28 451.32" style="fill:#e0e0e0"></polygon><polygon points="173.47 453.25 173.69 453.43 173.98 453.35 173.87 453.63 174.03 453.87 173.74 453.85 173.56 454.08 173.48 453.8 173.21 453.69 173.46 453.54 173.47 453.25" style="fill:#e0e0e0"></polygon><polygon points="167.04 450.61 167.4 450.63 167.63 450.35 167.72 450.7 168.05 450.82 167.75 451.01 167.74 451.37 167.46 451.14 167.11 451.24 167.24 450.91 167.04 450.61" style="fill:#e0e0e0"></polygon><polygon points="182 447.28 182.36 447.3 182.59 447.02 182.68 447.37 183.01 447.49 182.71 447.69 182.7 448.05 182.42 447.82 182.07 447.92 182.21 447.58 182 447.28" style="fill:#e0e0e0"></polygon><polygon points="173.48 447.04 173.71 447.06 173.86 446.88 173.91 447.1 174.13 447.18 173.94 447.3 173.93 447.53 173.75 447.39 173.53 447.45 173.61 447.24 173.48 447.04" style="fill:#e0e0e0"></polygon><path d="M182.51,447.53s-2,0-4.38-.14-4.38-.21-4.38-.23,2,0,4.38.14S182.51,447.51,182.51,447.53Z" style="fill:#e0e0e0"></path><path d="M184.71,445.51H126.52c-.76-1.73-1-3.37,0-4.84h58.19A5.58,5.58,0,0,1,184.71,445.51Z" style="fill:#e0e0e0"></path><rect x="138.57" y="442.05" width="31.53" height="1.76" style="fill:#ebebeb"></rect><path d="M128.76,445.54a1.74,1.74,0,0,1-.46-.59,4.19,4.19,0,0,1-.31-3.5,1.7,1.7,0,0,1,.35-.66,5.51,5.51,0,0,1-.21.7,5,5,0,0,0-.15,1.72,5,5,0,0,0,.45,1.67C128.62,445.29,128.78,445.52,128.76,445.54Z" style="fill:#e0e0e0"></path><path d="M130,445.54a2.09,2.09,0,0,1-.46-.59,4.42,4.42,0,0,1-.53-1.72,4.23,4.23,0,0,1,.23-1.78,1.7,1.7,0,0,1,.35-.66,5.51,5.51,0,0,1-.21.7,5.18,5.18,0,0,0-.16,1.72,5,5,0,0,0,.46,1.67A5.11,5.11,0,0,1,130,445.54Z" style="fill:#e0e0e0"></path><path d="M182.36,445.42a10.31,10.31,0,0,0,.41-2.36,10.87,10.87,0,0,0-.38-2.38,4.41,4.41,0,0,1,.59,2.38A4.16,4.16,0,0,1,182.36,445.42Z" style="fill:#f5f5f5"></path><path d="M181.28,445.41c-.07,0,.18-1,.17-2.32s-.24-2.3-.18-2.32a7.18,7.18,0,0,1,0,4.64Z" style="fill:#f5f5f5"></path><polygon points="214.58 440.5 214.58 466.83 253.08 466.83 295.54 466.83 295.54 440.5 214.58 440.5" style="fill:#f5f5f5"></polygon><polygon points="211.18 433.14 211.18 440.5 298.37 440.5 298.37 433.14 253.08 433.14 211.18 433.14" style="fill:#e0e0e0"></polygon><polygon points="254.78 466.83 295.54 466.83 295.54 440.5 298.37 440.5 298.37 433.14 253.08 433.14 253.08 439.82 254.78 466.83" style="fill:#e0e0e0"></polygon><rect x="225.9" y="444.74" width="16.42" height="3.96" style="fill:#e0e0e0"></rect><rect x="223.79" y="453.66" width="21.08" height="8.37" style="fill:#fff"></rect><polygon points="227.03 406.85 227.03 433.17 265.54 433.17 308 433.17 308 406.85 227.03 406.85" style="fill:#f5f5f5"></polygon><polygon points="223.64 399.49 223.64 406.85 310.83 406.85 310.83 399.49 265.54 399.49 223.64 399.49" style="fill:#e0e0e0"></polygon><polygon points="267.23 433.17 308 433.17 308 406.85 310.83 406.85 310.83 399.49 265.54 399.49 265.54 406.17 267.23 433.17" style="fill:#e0e0e0"></polygon><rect x="238.36" y="411.09" width="16.42" height="3.96" style="fill:#e0e0e0"></rect><rect x="236.25" y="420.01" width="21.08" height="8.37" style="fill:#fff"></rect><rect x="389.49" y="63.79" width="8.51" height="42.35" transform="translate(-0.45 2.11) rotate(-0.31)" style="fill:#e0e0e0"></rect><rect x="315.7" y="63.93" width="22.04" height="23.38" transform="translate(-0.4 1.75) rotate(-0.31)" style="fill:#ebebeb"></rect><rect x="337.63" y="63.82" width="22.04" height="23.38" transform="translate(-0.4 1.87) rotate(-0.31)" style="fill:#f5f5f5"></rect><path d="M315.67,70.45q22,.18,44-.2a.24.24,0,0,0,0-.47c-14.64-.08-29.33,0-44,.27a.2.2,0,0,0,0,.4Z" style="fill:#e0e0e0"></path><rect x="301.94" y="86.97" width="40.05" height="19.05" transform="translate(-0.51 1.73) rotate(-0.31)" style="fill:#ebebeb"></rect><rect x="341.8" y="86.76" width="40.05" height="19.05" transform="translate(-0.51 1.94) rotate(-0.31)" style="fill:#f5f5f5"></rect><path d="M301.92,92.38c26.6.3,53.3,0,79.9-.39a.24.24,0,0,0,0-.47c-26.61-.14-53.3-.13-79.9.46a.2.2,0,0,0,0,.4Z" style="fill:#e0e0e0"></path><rect x="286.94" y="106.14" width="155.15" height="6.83" style="fill:#e0e0e0"></rect><rect x="312.35" y="109.42" width="6.3" height="23.29" style="fill:#e0e0e0"></rect><rect x="406.37" y="109.42" width="6.3" height="23.29" style="fill:#e0e0e0"></rect><rect x="397.83" y="47.99" width="8.51" height="58.25" transform="translate(-0.41 2.16) rotate(-0.31)" style="fill:#ebebeb"></rect><rect x="406.39" y="58.85" width="13.23" height="47.21" transform="translate(-0.44 2.22) rotate(-0.31)" style="fill:#f5f5f5"></rect><path d="M419.4,67.91a95.24,95.24,0,0,1-13.23,0,95.24,95.24,0,0,1,13.23,0Z" style="fill:#e0e0e0"></path><path d="M419.4,65.93a95.24,95.24,0,0,1-13.23,0,95.24,95.24,0,0,1,13.23,0Z" style="fill:#e0e0e0"></path><path d="M419.4,98.92a95.24,95.24,0,0,1-13.23,0,95.24,95.24,0,0,1,13.23,0Z" style="fill:#e0e0e0"></path><path d="M419.4,96.93a95.24,95.24,0,0,1-13.23,0,99.56,99.56,0,0,1,13.23,0Z" style="fill:#e0e0e0"></path><path d="M413,92.61c-.13,0-.23-4.76-.23-10.64s.1-10.64.23-10.64.23,4.77.23,10.64S413.13,92.61,413,92.61Z" style="fill:#e0e0e0"></path><rect x="419.54" y="70.41" width="14.4" height="35.63" style="fill:#ebebeb"></rect><path d="M404.25,57.92a2.45,2.45,0,1,1-2.44-2.45A2.44,2.44,0,0,1,404.25,57.92Z" style="fill:#e0e0e0"></path><rect x="401.05" y="64.65" width="1.51" height="34.65" style="fill:#e0e0e0"></rect><rect x="147.74" y="38.34" width="61.72" height="64.34" style="fill:#e0e0e0"></rect><rect x="143.56" y="38.34" width="61.72" height="64.34" style="fill:#fafafa"></rect><path d="M205.3,102.69H143.55V38.32H205.3Zm-61.72,0h61.69V38.36H143.58Z" style="fill:#e0e0e0"></path><rect x="151.86" y="46.99" width="45.13" height="47.04" style="fill:#fafafa"></rect><path d="M151.86,94.34a7.19,7.19,0,0,1-1.11,1.29c-.72.76-1.74,1.79-2.87,2.91s-2.18,2.12-2.95,2.82a7.18,7.18,0,0,1-1.3,1.09,6.82,6.82,0,0,1,1.1-1.29c.73-.76,1.74-1.79,2.88-2.91s2.18-2.12,2.95-2.83A7.2,7.2,0,0,1,151.86,94.34Z" style="fill:#e0e0e0"></path><path d="M197,94.22a8.21,8.21,0,0,1,1.29,1.12c.76.72,1.79,1.73,2.91,2.86s2.12,2.18,2.82,3a7,7,0,0,1,1.09,1.31,7.19,7.19,0,0,1-1.29-1.11c-.76-.72-1.79-1.74-2.91-2.88s-2.12-2.18-2.83-3A6.82,6.82,0,0,1,197,94.22Z" style="fill:#e0e0e0"></path><path d="M196.86,47.11A8.21,8.21,0,0,1,198,45.82c.72-.76,1.73-1.79,2.87-2.91s2.18-2.12,2.94-2.82A7,7,0,0,1,205.1,39,7.19,7.19,0,0,1,204,40.29c-.72.76-1.73,1.79-2.87,2.91s-2.19,2.12-3,2.83A6.82,6.82,0,0,1,196.86,47.11Z" style="fill:#e0e0e0"></path><path d="M151.74,47.23a8,8,0,0,1-1.3-1.12c-.76-.72-1.79-1.73-2.9-2.87s-2.12-2.17-2.83-2.94A7.16,7.16,0,0,1,143.63,39a7.19,7.19,0,0,1,1.29,1.11c.76.72,1.79,1.74,2.91,2.87s2.12,2.19,2.83,3A7.35,7.35,0,0,1,151.74,47.23Z" style="fill:#e0e0e0"></path><path d="M196.86,94s0-.08,0-.23,0-.38,0-.66c0-.59,0-1.44,0-2.54,0-2.23,0-5.47,0-9.59,0-8.23-.05-20-.09-34l.17.17-45,0h0l.2-.2c0,17.26,0,33.41,0,47l-.17-.18,32.59.09,9.15,0L196,94h.63a.67.67,0,0,1,.21,0h-3.19l-9.11,0-32.7.09h-.17V94c0-13.63,0-29.78,0-47v-.2h.21l45,0H197V47c0,14.09-.07,25.87-.09,34.14,0,4.1,0,7.32,0,9.54,0,1.09,0,1.93,0,2.51,0,.27,0,.48,0,.64A.67.67,0,0,1,196.86,94Z" style="fill:#e0e0e0"></path><rect x="166.9" y="62.98" width="15.06" height="15.06" style="fill:#ebebeb"></rect><rect x="73.67" y="61.67" width="50.03" height="52.16" style="fill:#e0e0e0"></rect><rect x="70.29" y="61.67" width="50.03" height="52.16" style="fill:#fafafa"></rect><path d="M120.34,113.84H70.27V61.66h50.07Zm-50,0h50V61.69h-50Z" style="fill:#e0e0e0"></path><rect x="77.01" y="68.68" width="36.58" height="38.13" style="fill:#fafafa"></rect><path d="M77,107.07a5.93,5.93,0,0,1-.9,1.05c-.58.62-1.41,1.45-2.33,2.36s-1.76,1.71-2.39,2.29a6.13,6.13,0,0,1-1,.88,5.43,5.43,0,0,1,.9-1.05c.58-.62,1.4-1.45,2.33-2.36S75.34,108.52,76,108A5.58,5.58,0,0,1,77,107.07Z" style="fill:#e0e0e0"></path><path d="M113.59,107a5.54,5.54,0,0,1,1,.9c.62.58,1.45,1.41,2.36,2.33s1.72,1.76,2.29,2.39a6.13,6.13,0,0,1,.88,1.05,5.81,5.81,0,0,1-1-.9c-.61-.58-1.45-1.4-2.36-2.33s-1.72-1.77-2.29-2.39A6.13,6.13,0,0,1,113.59,107Z" style="fill:#e0e0e0"></path><path d="M113.49,68.79a5.89,5.89,0,0,1,.91-1.05c.58-.62,1.4-1.45,2.32-2.36s1.77-1.72,2.39-2.29a6.39,6.39,0,0,1,1.06-.88,5.81,5.81,0,0,1-.9,1c-.58.61-1.41,1.45-2.33,2.36s-1.77,1.72-2.39,2.29A6.39,6.39,0,0,1,113.49,68.79Z" style="fill:#e0e0e0"></path><path d="M76.91,68.88a6.38,6.38,0,0,1-1-.9c-.61-.59-1.45-1.41-2.35-2.33s-1.72-1.76-2.29-2.39a5.1,5.1,0,0,1-.88-1.06,6.13,6.13,0,0,1,1,.9c.62.59,1.46,1.41,2.36,2.33s1.72,1.77,2.3,2.4A5.24,5.24,0,0,1,76.91,68.88Z" style="fill:#e0e0e0"></path><path d="M113.49,106.82v-.19c0-.13,0-.3,0-.53,0-.48,0-1.17,0-2.06,0-1.81,0-4.43,0-7.77,0-6.68,0-16.19-.07-27.59l.14.15L77,68.85h0l.16-.17c0,14,0,27.09,0,38.14l-.14-.14,26.42.07,7.42,0h2l-1.94,0-7.38,0L77,107h-.14v-.14c0-11,0-24.14,0-38.14v-.16H77l36.47,0h.15v.14c0,11.43-.06,21-.08,27.68,0,3.32,0,5.94,0,7.74,0,.88,0,1.56,0,2,0,.22,0,.39,0,.52S113.5,106.82,113.49,106.82Z" style="fill:#e0e0e0"></path><rect x="89.2" y="81.65" width="12.21" height="12.21" style="fill:#ebebeb"></rect></g><g id="freepik--Objects--inject-62"><rect x="284.84" y="435.75" width="31.79" height="31.79" style="fill:#69A6F8"></rect><g style="opacity:0.30000000000000004"><rect x="284.84" y="435.75" width="31.79" height="31.79"></rect></g><rect x="271.29" y="435.75" width="31.79" height="31.79" style="fill:#69A6F8"></rect><polygon points="275.86 444.89 282.35 456.13 288.83 467.37 275.86 467.37 262.88 467.37 269.37 456.13 267.85 444.89 275.86 444.89" style="fill:#69A6F8"></polygon><g style="opacity:0.30000000000000004"><polygon points="275.86 444.89 282.35 456.13 288.83 467.37 275.86 467.37 262.88 467.37 269.37 456.13 267.85 444.89 275.86 444.89"></polygon></g><polygon points="267.85 444.89 274.34 456.13 280.83 467.37 267.85 467.37 254.87 467.37 261.36 456.13 267.85 444.89" style="fill:#69A6F8"></polygon></g><g id="freepik--Window--inject-62"><rect x="79.9" y="126.14" width="346.19" height="236.41" style="fill:#fff"></rect><rect x="79.9" y="152.54" width="273.5" height="210.01" style="fill:#263238"></rect><circle cx="91.22" cy="139.86" r="2.74" style="fill:#263238"></circle><circle cx="100.5" cy="139.86" r="2.74" style="fill:#263238"></circle><circle cx="109.79" cy="139.86" r="2.74" style="fill:#263238"></circle><path d="M226,362.55c-.15,0-.26-47.11-.26-105.2s.11-105.21.26-105.21.26,47.09.26,105.21S226.12,362.55,226,362.55Z" style="fill:#455a64"></path><path d="M258.12,362.55c-.14,0-.26-47.11-.26-105.2s.12-105.21.26-105.21.26,47.09.26,105.21S258.26,362.55,258.12,362.55Z" style="fill:#455a64"></path><path d="M290.26,362.55c-.14,0-.26-47.11-.26-105.2s.12-105.21.26-105.21.26,47.09.26,105.21S290.41,362.55,290.26,362.55Z" style="fill:#455a64"></path><path d="M322.41,362.55c-.15,0-.26-47.11-.26-105.2s.11-105.21.26-105.21.26,47.09.26,105.21S322.55,362.55,322.41,362.55Z" style="fill:#455a64"></path><path d="M112.53,363.12c-.14,0-.26-47.15-.26-105.29s.12-105.29.26-105.29.26,47.13.26,105.29S112.67,363.12,112.53,363.12Z" style="fill:#455a64"></path><path d="M144.67,363.12c-.14,0-.26-47.15-.26-105.29s.12-105.29.26-105.29.26,47.13.26,105.29S144.82,363.12,144.67,363.12Z" style="fill:#455a64"></path><path d="M176.82,363.12c-.15,0-.26-47.15-.26-105.29s.11-105.29.26-105.29.26,47.13.26,105.29S177,363.12,176.82,363.12Z" style="fill:#455a64"></path><path d="M393.74,181.82c0,.15-70.26.26-156.91.26S79.9,182,79.9,181.82s70.25-.26,156.93-.26S393.74,181.68,393.74,181.82Z" style="fill:#455a64"></path><path d="M393.74,222.32c0,.14-70.26.26-156.91.26s-156.93-.12-156.93-.26,70.25-.26,156.93-.26S393.74,222.18,393.74,222.32Z" style="fill:#455a64"></path><path d="M393.74,276c0,.14-70.26.26-156.91.26S79.9,276.11,79.9,276s70.25-.26,156.93-.26S393.74,275.83,393.74,276Z" style="fill:#455a64"></path><path d="M393.74,307.33c0,.14-70.26.26-156.91.26s-156.93-.12-156.93-.26,70.25-.26,156.93-.26S393.74,307.18,393.74,307.33Z" style="fill:#455a64"></path><path d="M393.74,338.69c0,.14-70.26.26-156.91.26s-156.93-.12-156.93-.26,70.25-.26,156.93-.26S393.74,338.54,393.74,338.69Z" style="fill:#455a64"></path><rect x="275.79" y="176.3" width="15.74" height="50.7" style="fill:#69A6F8"></rect><path d="M292.3,220.1a61.76,61.76,0,0,1-8.09.26,61.76,61.76,0,0,1-8.09-.26,63.93,63.93,0,0,1,8.09-.26A63.93,63.93,0,0,1,292.3,220.1Z" style="fill:#263238"></path><path d="M292.3,191a61.76,61.76,0,0,1-8.09.26,61.76,61.76,0,0,1-8.09-.26,63.93,63.93,0,0,1,8.09-.26A63.93,63.93,0,0,1,292.3,191Z" style="fill:#263238"></path><rect x="113.08" y="194.56" width="63.43" height="17.11" style="fill:#69A6F8"></rect><path d="M129.13,211.67a69.26,69.26,0,0,1-.26-8.42,69.26,69.26,0,0,1,.26-8.42,66.91,66.91,0,0,1,.26,8.42A66.91,66.91,0,0,1,129.13,211.67Z" style="fill:#263238"></path><path d="M161.77,211.67a66.91,66.91,0,0,1-.26-8.42,66.91,66.91,0,0,1,.26-8.42,69.26,69.26,0,0,1,.26,8.42A69.26,69.26,0,0,1,161.77,211.67Z" style="fill:#263238"></path><path d="M177.32,339.75H112v-73.7h65.29Zm-64.29-1h63.29v-71.7H113Z" style="fill:#69A6F8"></path><path d="M169,330.32H120.36V275.47H169Zm-47.62-1H168V276.47H121.36Z" style="fill:#69A6F8"></path><path d="M422.71,244.34c0,.15-76.75.26-171.4.26s-171.41-.11-171.41-.26,76.73-.26,171.41-.26S422.71,244.2,422.71,244.34Z" style="fill:#fafafa"></path><rect x="353.4" y="152.14" width="72.7" height="210.41" style="fill:#e0e0e0"></rect><path d="M201.54,363.12c-.14,0-.26-47.15-.26-105.29s.12-105.29.26-105.29.26,47.13.26,105.29S201.68,363.12,201.54,363.12Z" style="fill:#fafafa"></path><rect x="251.91" y="276.14" width="15.32" height="53.36" style="fill:#69A6F8"></rect><g style="opacity:0.4"><rect x="251.91" y="276.14" width="15.32" height="53.36"></rect></g><path d="M244.1,264.54V339h67V264.54ZM300,329.49H254.87V276.14H300Z" style="fill:#69A6F8"></path><rect x="311.08" y="264.54" width="12.25" height="74.48" style="fill:#69A6F8"></rect><g style="opacity:0.4"><rect x="311.08" y="264.54" width="12.25" height="74.48"></rect></g><path d="M311.08,264.54a63.28,63.28,0,0,1-5.35,6,63,63,0,0,1-5.73,5.62,61.87,61.87,0,0,1,5.35-6A61.33,61.33,0,0,1,311.08,264.54Z" style="fill:#263238"></path><path d="M254.87,276.14a61.84,61.84,0,0,1-5.57-5.63,60.58,60.58,0,0,1-5.2-6,60.17,60.17,0,0,1,5.58,5.62A59,59,0,0,1,254.87,276.14Z" style="fill:#263238"></path><path d="M256.2,265.9c-.09.1-.5-.11-.91-.49s-.65-.77-.55-.87.5.11.91.49S256.3,265.79,256.2,265.9Z" style="fill:#263238"></path><path d="M262.58,271.82c-.1.1-.89-.48-1.77-1.29s-1.52-1.57-1.42-1.67.89.47,1.77,1.29S262.67,271.71,262.58,271.82Z" style="fill:#263238"></path><path d="M267.23,276.14c-.1.1-.51-.12-.91-.49s-.66-.77-.56-.88.51.12.91.49S267.33,276,267.23,276.14Z" style="fill:#263238"></path><path d="M244.1,339a50.35,50.35,0,0,1,5.21-5,52.34,52.34,0,0,1,5.56-4.57,49.13,49.13,0,0,1-5.21,5A51.2,51.2,0,0,1,244.1,339Z" style="fill:#263238"></path><path d="M311.08,339a52.24,52.24,0,0,1-5.71-4.57,51.72,51.72,0,0,1-5.37-5,52.61,52.61,0,0,1,5.71,4.57A51.72,51.72,0,0,1,311.08,339Z" style="fill:#263238"></path><path d="M314.52,332.1c-.09.11-.84-.38-1.68-1.1s-1.44-1.4-1.35-1.51.85.39,1.69,1.11S314.62,332,314.52,332.1Z" style="fill:#263238"></path><path d="M320.59,337.32c-.09.11-.85-.39-1.69-1.11s-1.44-1.39-1.34-1.5.85.39,1.68,1.11S320.68,337.21,320.59,337.32Z" style="fill:#263238"></path><path d="M300,329.49c0,.15-10.17.26-22.71.26s-22.72-.11-22.72-.26,10.17-.26,22.72-.26S300,329.35,300,329.49Z" style="fill:#263238"></path><path d="M311,339.09c-.14,0-.26-16.62-.26-37.11s.12-37.11.26-37.11.26,16.61.26,37.11S311.12,339.09,311,339.09Z" style="fill:#263238"></path><path d="M254.87,276.65c.14,0,.26,11.82.26,26.39s-.12,26.39-.26,26.39-.26-11.82-.26-26.39S254.72,276.65,254.87,276.65Z" style="fill:#263238"></path><path d="M254.86,274.65c.14,0,.26.45.26,1s-.11,1-.25,1-.26-.45-.27-1S254.72,274.65,254.86,274.65Z" style="fill:#263238"></path><path d="M254.78,269.24c.14,0,.27.6.28,1.35s-.09,1.35-.23,1.36-.27-.6-.29-1.35S254.64,269.25,254.78,269.24Z" style="fill:#263238"></path><path d="M254.74,264.54c.14,0,.26.45.26,1s-.11,1-.25,1-.27-.45-.27-1S254.6,264.54,254.74,264.54Z" style="fill:#263238"></path><path d="M265.58,330.7c-.09-.11.2-.48.65-.81s.92-.51,1-.32-.23.42-.68.74S265.67,330.82,265.58,330.7Z" style="fill:#263238"></path><path d="M259.43,335.54c-.09-.11.52-.75,1.37-1.42s1.6-1.13,1.69-1-.52.75-1.37,1.43S259.51,335.65,259.43,335.54Z" style="fill:#263238"></path><path d="M254.8,339.25c-.09-.12.19-.49.62-.83s.85-.54.94-.43-.18.49-.61.83S254.89,339.36,254.8,339.25Z" style="fill:#263238"></path><ellipse cx="254.8" cy="330.22" rx="0.26" ry="1" style="fill:#263238"></ellipse><path d="M254.8,335.24c-.14,0-.26-.45-.26-1s.12-1,.26-1,.26.45.26,1S255,335.24,254.8,335.24Z" style="fill:#263238"></path><ellipse cx="254.8" cy="338.25" rx="0.26" ry="1" style="fill:#263238"></ellipse><path d="M303.79,276.25c0,.15-.89.26-2,.26s-2-.11-2-.26a7.82,7.82,0,0,1,4,0Z" style="fill:#263238"></path><path d="M311.79,276.25c0,.15-.89.26-2,.26s-2-.11-2-.26a7.82,7.82,0,0,1,4,0Z" style="fill:#263238"></path><path d="M319.79,276.25c0,.15-.89.26-2,.26s-2-.11-2-.26a7.82,7.82,0,0,1,4,0Z" style="fill:#263238"></path><path d="M313.87,273.42c.1.1-.45.82-1.23,1.6s-1.5,1.33-1.6,1.23.45-.82,1.23-1.6S313.77,273.32,313.87,273.42Z" style="fill:#263238"></path><path d="M319.53,267.77c.1.1-.45.81-1.23,1.59s-1.5,1.34-1.6,1.23.45-.81,1.23-1.59S319.42,267.66,319.53,267.77Z" style="fill:#263238"></path><path d="M322.57,264.72c.1.11.13.24.08.3s-.19,0-.3-.08-.13-.23-.07-.29S322.47,264.62,322.57,264.72Z" style="fill:#263238"></path><path d="M303.71,329.09a7.82,7.82,0,0,1-4,0,7.82,7.82,0,0,1,4,0Z" style="fill:#263238"></path><path d="M311.71,329.09a7.82,7.82,0,0,1-4,0,7.82,7.82,0,0,1,4,0Z" style="fill:#263238"></path><path d="M319.71,329.09a7.82,7.82,0,0,1-4,0,7.82,7.82,0,0,1,4,0Z" style="fill:#263238"></path><path d="M324,329.09c0,.14-.06.26-.14.26s-.14-.12-.14-.26.06-.26.14-.26S324,329,324,329.09Z" style="fill:#263238"></path><rect x="358.84" y="157.92" width="61.76" height="12.65" style="fill:#ebebeb"></rect><rect x="358.84" y="175.5" width="61.76" height="29.72" style="fill:#ebebeb"></rect><rect x="358.84" y="252.78" width="61.76" height="29.72" style="fill:#ebebeb"></rect><rect x="358.84" y="208.54" width="61.76" height="9.46" style="fill:#ebebeb"></rect><rect x="358.84" y="234.22" width="61.76" height="9.46" style="fill:#ebebeb"></rect><rect x="358.84" y="287.89" width="61.76" height="9.46" style="fill:#ebebeb"></rect><rect x="358.84" y="221.37" width="30.17" height="9.24" style="fill:#ebebeb"></rect><rect x="390.43" y="221.37" width="30.17" height="9.24" style="fill:#ebebeb"></rect><path d="M426.1,152.54c0,.14-77.51.26-173.09.26s-173.11-.12-173.11-.26,77.49-.26,173.11-.26S426.1,152.39,426.1,152.54Z" style="fill:#263238"></path><path d="M426.1,362.55c0-1.71-.09-92.51-.21-236.41l.21.21-346.17.05h0l.26-.26c0,84.36,0,164.53,0,236.41l-.24-.24,346.2.24-346.2.24h-.24v-.24c0-71.88,0-152,0-236.41v-.26h.29l346.17.05h.21v.21C426.18,270,426.1,360.84,426.1,362.55Z" style="fill:#263238"></path></g><g id="freepik--Floor--inject-62"><path d="M472.56,467.37c0,.14-99.65.26-222.55.26s-222.57-.12-222.57-.26,99.63-.27,222.57-.27S472.56,467.22,472.56,467.37Z" style="fill:#263238"></path></g><g id="freepik--Plant--inject-62"><path d="M65.39,364.32c-7.11-10.88-6.84-26.77,1.65-36.6,2.64-3.05,6.32-5.71,10.34-5.36s7.43,3.88,8.68,7.81.81,8.2.08,12.26c-1,5.69-2.75,11.51-6.7,15.73s-9,8.93-14,6.16" style="fill:#69A6F8"></path><path d="M68.56,416.29a16.23,16.23,0,0,1,4.53-18.45c1.63-1.34,3.77-2.37,5.81-1.83a5.66,5.66,0,0,1,3.76,4.81,13.34,13.34,0,0,1-1.07,6.33c-1,2.84-2.46,5.68-4.88,7.5s-5.79,3.53-8.15,1.64" style="fill:#69A6F8"></path><path d="M51.41,412.56a23.51,23.51,0,0,0-11.85-24.82c-2.71-1.4-6-2.24-8.77-.87s-4.14,4.81-3.92,7.93,1.73,6,3.38,8.64c2.32,3.71,5.16,7.33,9.12,9.19s9.25,3.3,12-.07" style="fill:#69A6F8"></path><path d="M52.65,386.49c3.4-11-2.37-24.3-12-30.6-3-1.95-6.76-3.32-10.1-2s-5.38,5.1-5.48,8.76,1.3,7.17,2.91,10.45c2.26,4.59,5.14,9.12,9.53,11.76s11.48,5.27,15.13,1.67" style="fill:#69A6F8"></path><path d="M59.48,440.17a2.17,2.17,0,0,1-.11-.53c-.06-.4-.14-.91-.23-1.53q-.07-.51-.15-1.11c-.08-.4-.17-.84-.25-1.3-.18-.94-.37-2-.68-3.17-.14-.59-.28-1.2-.44-1.83s-.37-1.29-.57-2c-.37-1.37-.91-2.78-1.42-4.28a82.06,82.06,0,0,0-4.24-9.4,83.32,83.32,0,0,0-5.49-8.73c-1-1.25-1.85-2.48-2.78-3.54l-1.32-1.57-1.28-1.38c-.8-.89-1.58-1.64-2.27-2.31l-1-.93-.83-.74-1.15-1a3.19,3.19,0,0,1-.39-.38,2.11,2.11,0,0,1,.45.31l1.2,1,.87.72,1,.9c.7.66,1.51,1.39,2.33,2.28L42.07,401l1.34,1.56c1,1,1.85,2.28,2.84,3.53a79,79,0,0,1,5.55,8.77A78.76,78.76,0,0,1,56,424.31c.5,1.52,1,2.94,1.38,4.32l.55,2c.14.64.28,1.25.42,1.84.28,1.18.45,2.26.6,3.2l.22,1.32c0,.4.08.78.11,1.12.06.63.11,1.14.14,1.54A2,2,0,0,1,59.48,440.17Z" style="fill:#263238"></path><path d="M59.23,442.15a.63.63,0,0,1,0-.22c0-.17,0-.38.05-.64,0-.59.13-1.41.22-2.44l.18-1.76c0-.64.06-1.35.1-2.1.06-1.51.2-3.23.15-5.13,0-.95,0-1.94,0-3s-.1-2.11-.16-3.23c-.07-2.23-.38-4.6-.64-7.1a113,113,0,0,0-3.37-16,112,112,0,0,0-5.89-15.23c-1.13-2.24-2.17-4.39-3.32-6.31-.57-1-1.07-1.92-1.63-2.79l-1.61-2.51c-1-1.62-2-3-2.92-4.22-.45-.61-.84-1.19-1.24-1.7L38,366.44l-1.52-1.92-.39-.51-.12-.19.16.16.42.47,1.59,1.87c.34.42.73.87,1.14,1.36s.81,1.08,1.27,1.69c.89,1.22,2,2.57,3,4.19l1.65,2.5c.56.87,1.08,1.83,1.65,2.79,1.17,1.92,2.23,4.07,3.38,6.31a108.59,108.59,0,0,1,5.94,15.29,108.11,108.11,0,0,1,3.35,16.05c.26,2.51.55,4.89.61,7.13,0,1.12.13,2.2.13,3.24s0,2,0,3c0,1.91-.14,3.63-.22,5.14,0,.76-.08,1.46-.14,2.11s-.15,1.23-.22,1.76c-.13,1-.23,1.84-.31,2.43q-.06.39-.09.63A.93.93,0,0,1,59.23,442.15Z" style="fill:#263238"></path><path d="M77.74,335.49l-.1.2-.3.57-1.22,2.17c-.26.47-.57,1-.87,1.57s-.61,1.23-1,1.91l-1.1,2.19c-.37.79-.72,1.64-1.11,2.52s-.81,1.8-1.21,2.78l-1.18,3.06-.62,1.61-.57,1.69c-.39,1.15-.78,2.33-1.19,3.53-1.51,4.88-2.93,10.3-4.14,16.06s-2,11.33-2.59,16.39-.9,9.66-1,13.52c-.09,1.93-.11,3.67-.12,5.21s0,2.85,0,3.93,0,1.88,0,2.48v.65a.89.89,0,0,1,0,.22s0-.07,0-.22,0-.38,0-.64c0-.61-.07-1.44-.13-2.49s-.08-2.4-.08-3.93,0-3.29,0-5.22c.07-3.87.42-8.46.91-13.55s1.39-10.65,2.56-16.44,2.66-11.22,4.19-16.1c.42-1.2.82-2.38,1.21-3.53l.59-1.69.63-1.62,1.21-3.06c.4-1,.84-1.89,1.23-2.77s.77-1.73,1.15-2.51.78-1.5,1.13-2.19.69-1.31,1-1.9.64-1.08.92-1.55l1.29-2.13.34-.54C77.68,335.54,77.73,335.48,77.74,335.49Z" style="fill:#263238"></path><path d="M75.32,402.2a8.51,8.51,0,0,1-.76,1.33c-.52.83-1.23,2.06-2.07,3.6s-1.76,3.4-2.69,5.52a73.1,73.1,0,0,0-2.61,7.06,74.69,74.69,0,0,0-1.82,7.3c-.43,2.27-.73,4.33-.9,6.08s-.28,3.15-.32,4.13a10.7,10.7,0,0,1-.12,1.53,10.33,10.33,0,0,1-.06-1.53c0-1,0-2.41.17-4.16s.4-3.84.8-6.13a69.94,69.94,0,0,1,1.8-7.36,69.1,69.1,0,0,1,2.67-7.09,60.56,60.56,0,0,1,2.8-5.51c.87-1.53,1.63-2.74,2.2-3.54A8.89,8.89,0,0,1,75.32,402.2Z" style="fill:#263238"></path><polygon points="45.52 435.28 76.75 435.28 72.97 467.17 49.41 467.17 45.52 435.28" style="fill:#455a64"></polygon><polygon points="46.66 463.73 49.31 467.17 72.97 467.17 75.69 463.84 46.66 463.73" style="fill:#263238"></polygon><path d="M75.53,444.66c0,.13-6.48.23-14.47.23s-14.48-.1-14.48-.23,6.48-.23,14.48-.23S75.53,444.53,75.53,444.66Z" style="fill:#fafafa"></path><path d="M75.53,446.78c0,.13-6.48.24-14.47.24s-14.48-.11-14.48-.24,6.48-.23,14.48-.23S75.53,446.65,75.53,446.78Z" style="fill:#fafafa"></path><path d="M75.14,448.84c0,.13-6.25.23-14,.23s-14-.1-14-.23,6.25-.23,14-.23S75.14,448.71,75.14,448.84Z" style="fill:#fafafa"></path><path d="M50.29,366.55a1.13,1.13,0,0,1,0,.3c0,.23,0,.52-.08.87-.08.79-.18,1.87-.32,3.17-.28,2.68-.7,6.39-1.18,10.47,0,.16,0,.32-.05.46V382h-.14c-4,.06-7.62.1-10.23.11H34.36a1.25,1.25,0,0,1-.3,0l.3,0,.83,0,3.08-.1c2.61-.07,6.22-.14,10.23-.21l-.15.14,0-.45c.48-4.09.93-7.79,1.27-10.46.17-1.3.32-2.37.42-3.17,0-.34.1-.62.13-.86A1.25,1.25,0,0,1,50.29,366.55Z" style="fill:#263238"></path><path d="M43.19,357a1.09,1.09,0,0,1,0,.31c0,.24,0,.54,0,.9,0,.82,0,1.93,0,3.29,0,2.78-.11,6.61-.22,10.85,0,.17,0,.34,0,.5V373h-.17a96.52,96.52,0,0,0-10.5-.24c-1.34,0-2.42.1-3.16.14l-.86,0H28a1,1,0,0,1,.29-.06l.86-.1c.74-.07,1.82-.16,3.16-.23a83.06,83.06,0,0,1,10.53.14l-.17.15c0-.15,0-.32,0-.5.1-4.23.21-8.07.31-10.85.05-1.35.1-2.46.13-3.29,0-.35,0-.65,0-.89A1.61,1.61,0,0,1,43.19,357Z" style="fill:#263238"></path><path d="M34.88,353.76a5.26,5.26,0,0,1,.19.92l.47,2.51c.4,2.11,1,5,1.93,8.23l.09.34-.32-.15-.37-.18A26.89,26.89,0,0,0,28.55,363c-1.11-.13-2-.18-2.64-.21a7.61,7.61,0,0,1-1,0l.25,0c.16,0,.41,0,.72,0a21.15,21.15,0,0,1,2.66.11A25.38,25.38,0,0,1,37,365.14l.38.19-.23.18a80.59,80.59,0,0,1-1.84-8.29c-.17-1.06-.29-1.93-.37-2.53A5,5,0,0,1,34.88,353.76Z" style="fill:#263238"></path><path d="M79,411.9c0,.05-.9,0-2.36-.1a40.14,40.14,0,0,0-5.68.18l-1.3.16-.15,0,0-.15c-.34-1.89-.62-3.55-.81-4.75a12.1,12.1,0,0,1-.24-1.92,12.72,12.72,0,0,1,.44,1.88c.25,1.19.57,2.85.92,4.73l-.18-.12,1.32-.17a31.21,31.21,0,0,1,5.73-.09c.73.05,1.32.13,1.72.19A2.16,2.16,0,0,1,79,411.9Z" style="fill:#263238"></path><path d="M81.92,406s-.87-.15-2.28-.33a25,25,0,0,0-5.54,0c-.34,0-.67.08-1,.12l-.17,0v-.16c-.2-1.94-.36-3.66-.46-4.9a13.28,13.28,0,0,1-.1-2,14.34,14.34,0,0,1,.31,2c.16,1.23.35,2.95.56,4.89l-.18-.14,1-.13a21.72,21.72,0,0,1,5.61.15c.71.12,1.27.25,1.66.35A2.29,2.29,0,0,1,81.92,406Z" style="fill:#263238"></path><path d="M84,350.52a1.25,1.25,0,0,1-.31.16l-.91.41-3.38,1.44-11.19,4.63-.6.25-.14.06-.06-.14-4.73-10.68c-.57-1.33-1-2.42-1.39-3.22l-.36-.89a1.52,1.52,0,0,1-.11-.31s.07.09.16.29l.42.86,1.48,3.18,4.81,10.64-.2-.08.6-.25,11.23-4.55L82.77,351l.94-.35Z" style="fill:#263238"></path><path d="M86.77,337s-.08.08-.27.21l-.82.53-3.05,1.9-10.17,6.2-.16.1-.07-.18-.18-.49c-1.66-4.48-3.16-8.52-4.26-11.5l-1.26-3.5q-.19-.58-.33-1a1.36,1.36,0,0,1-.09-.34,1.93,1.93,0,0,1,.15.32l.38.94c.34.85.8,2,1.36,3.46l4.34,11.47.19.49-.23-.08,10.22-6.12,3.1-1.82.85-.48Z" style="fill:#263238"></path><path d="M85.88,329.84a4.25,4.25,0,0,1-.67.39c-.44.25-1.08.6-1.85,1.08a32.4,32.4,0,0,0-5.65,4.43l-.4.38.14-.53c.13-.56.26-1.15.35-1.75a20.17,20.17,0,0,0-.44-8.33,21.26,21.26,0,0,0-.8-2.42,5.28,5.28,0,0,1-.33-.87,4.83,4.83,0,0,1,.45.83,18.55,18.55,0,0,1,.9,2.4,19.47,19.47,0,0,1,.54,8.44c-.1.61-.23,1.21-.37,1.78l-.26-.15a29.62,29.62,0,0,1,5.77-4.39c.79-.45,1.44-.78,1.9-1A3.18,3.18,0,0,1,85.88,329.84Z" style="fill:#263238"></path><path d="M50.25,399.85a5,5,0,0,1-.15.81c-.1.51-.26,1.26-.43,2.19a52.43,52.43,0,0,0-.84,7.4v.14h-.14l-.7,0c-3.09.19-5.9.34-7.93.43l-2.4.1a5.59,5.59,0,0,1-.89,0,4.93,4.93,0,0,1,.88-.11l2.4-.2c2-.15,4.83-.34,7.92-.52l.7-.05-.14.15a45.63,45.63,0,0,1,.94-7.42c.2-.93.38-1.67.53-2.18A3.69,3.69,0,0,1,50.25,399.85Z" style="fill:#263238"></path><path d="M44.11,391.05a4.53,4.53,0,0,1,0,.82c-.07.58-.15,1.32-.25,2.22-.23,1.88-.56,4.48-1,7.41l0,.13H42.7l-1,.06c-3.17.22-6,.54-8.1.81l-2.45.33a5,5,0,0,1-.9.09,4.45,4.45,0,0,1,.88-.21c.57-.11,1.41-.27,2.44-.43,2.06-.33,4.93-.69,8.11-.9l1-.07-.15.14c.4-2.93.77-5.53,1.06-7.4.14-.89.25-1.63.34-2.21A4.34,4.34,0,0,1,44.11,391.05Z" style="fill:#263238"></path><path d="M36.89,387.27s-.14.85-.37,2.25A40.48,40.48,0,0,0,36,395v.18l-.18,0-.52-.07a49.44,49.44,0,0,0-5.9-.35l-1.79,0a2.24,2.24,0,0,1-.67,0,2.7,2.7,0,0,1,.66-.1c.42-.05,1-.1,1.8-.12a37.07,37.07,0,0,1,5.94.26l.52.06-.17.16a31.62,31.62,0,0,1,.6-5.56c.14-.7.28-1.25.38-1.63A2.29,2.29,0,0,1,36.89,387.27Z" style="fill:#263238"></path><path d="M78,396.06a27.23,27.23,0,0,1-1.4,3.17,25.28,25.28,0,0,1-1.5,3.12,14.4,14.4,0,0,1,1.22-3.25A14.21,14.21,0,0,1,78,396.06Z" style="fill:#263238"></path><path d="M82,400.22a33.59,33.59,0,0,0-3.55.72,33.54,33.54,0,0,0-3.33,1.41,8.21,8.21,0,0,1,3.24-1.71A8,8,0,0,1,82,400.22Z" style="fill:#263238"></path></g><g id="freepik--Character--inject-62"><path d="M394.21,402l16.08-29.67.2,27.18-6,17.44,59.74,10.36,2.54-47.14,4.3-36.2a9.85,9.85,0,0,0-6.16-10.31l-16.45-6.47-23.15,4.24L416,335A25.64,25.64,0,0,0,405.83,342l-26.45,45.3" style="fill:#69A6F8"></path><path d="M409.94,398.36c-.14,0-.18-9.42-.08-21s.28-21,.42-21,.18,9.42.08,21S410.08,398.36,409.94,398.36Z" style="fill:#263238"></path><path d="M412.13,405.27l36.1-14.54a8.24,8.24,0,0,0,5.14-7L456,349.1s-.31-14.72,8.89-15.44l5.23,2.06c6.76,3.59,8.43,13.43,7.51,21-1.31,10.8-1.85,26.08-3.31,35.45-1.2,7.67-5.59,14.41-13.09,16.39l-44.47,9.62Z" style="fill:#69A6F8"></path><path d="M455.5,354.38a4.22,4.22,0,0,0-.12.79c-.05.56-.13,1.32-.23,2.28-.18,2-.44,4.88-.76,8.39s-.67,7.78-1.07,12.46q-.15,1.76-.3,3.6a27.53,27.53,0,0,1-.47,3.7,6.12,6.12,0,0,1-1.79,3.24,12.32,12.32,0,0,1-3.33,2.08c-10,4.3-19.13,7.86-25.79,10.35l-7.91,2.92-2.15.79a5.06,5.06,0,0,0-.74.31,5.52,5.52,0,0,0,.78-.22l2.18-.71c1.89-.62,4.61-1.56,8-2.77,6.7-2.41,15.89-5.91,25.87-10.23a12.69,12.69,0,0,0,3.46-2.17,6.57,6.57,0,0,0,1.92-3.48,26.54,26.54,0,0,0,.46-3.77c.1-1.23.2-2.43.29-3.61.36-4.68.69-8.9,1-12.46s.46-6.37.61-8.41c.06-1,.11-1.72.14-2.28A6,6,0,0,0,455.5,354.38Z" style="fill:#263238"></path><path d="M476.18,373.19a1.62,1.62,0,0,0-.07.47c0,.36-.07.8-.12,1.33-.11,1.24-.25,2.9-.43,4.91s-.45,4.54-.81,7.27a68.94,68.94,0,0,1-1.63,8.76,13,13,0,0,1-1.76,4.18,24.37,24.37,0,0,1-2.7,3.32,23.11,23.11,0,0,1-5.77,4.33,22,22,0,0,1-6.34,2.08,2.38,2.38,0,0,0,.47,0,11.07,11.07,0,0,0,1.33-.18,17.54,17.54,0,0,0,4.69-1.58,22.75,22.75,0,0,0,5.94-4.33,23.83,23.83,0,0,0,2.77-3.36,13.43,13.43,0,0,0,1.84-4.32,65.61,65.61,0,0,0,1.6-8.84c.34-2.73.56-5.21.71-7.29s.23-3.76.28-4.93c0-.53,0-1,0-1.34A1.43,1.43,0,0,0,476.18,373.19Z" style="fill:#263238"></path><path d="M460.74,397.41a5.26,5.26,0,0,0-.65-1.92,12.48,12.48,0,0,0-7.33-6.26,5.3,5.3,0,0,0-2-.35,16,16,0,0,0,1.89.68,14,14,0,0,1,7.13,6.09C460.4,396.71,460.67,397.44,460.74,397.41Z" style="fill:#263238"></path><g style="opacity:0.30000000000000004"><path d="M422.5,401.14c3.86-2.18,7.64-3.86,11.68-5.69s8-4.19,10.63-7.75c5-6.71,4.41-16.41,9.51-23q-.49,6.68-1,13.36c-.3,4.09.32,8.13-2.31,10.9-2.21,2.34-6.54,4.13-9.59,5.14-6.15,2-12.77,5-18.92,7.07"></path></g><path d="M477.21,348.26c0,.15-16.88.41-37.7.59s-37.7.22-37.71.08,16.88-.41,37.71-.6S477.21,348.12,477.21,348.26Z" style="fill:#f5f5f5"></path><path d="M477.84,351.42c0,.14-17.33.41-38.71.6s-38.72.23-38.72.08,17.33-.41,38.71-.6S477.84,351.28,477.84,351.42Z" style="fill:#f5f5f5"></path><path d="M474,393.78c-.06.06-1-.9-2.59-2.26a32.51,32.51,0,0,0-6.94-4.42,33.26,33.26,0,0,0-7.85-2.5c-2.08-.37-3.4-.44-3.39-.53a3,3,0,0,1,.93,0,20.65,20.65,0,0,1,2.52.21,29,29,0,0,1,8,2.39,28.66,28.66,0,0,1,7,4.61,19.63,19.63,0,0,1,1.79,1.8C473.83,393.49,474,393.76,474,393.78Z" style="fill:#f5f5f5"></path><path d="M474.65,387.9c0,.07-1-.7-2.73-1.76A34.92,34.92,0,0,0,457.3,381c-2-.23-3.23-.25-3.23-.33a2.57,2.57,0,0,1,.87-.09,20.77,20.77,0,0,1,2.4,0,30.08,30.08,0,0,1,14.78,5.18,22.82,22.82,0,0,1,1.9,1.45C474.45,387.65,474.67,387.87,474.65,387.9Z" style="fill:#f5f5f5"></path><path d="M359.77,452s-30.2,8.36-31.41,8.79c-1.82.64-1.52,7.3,1.31,7.2,1.34-.05,23.2.81,26,.64s11.09-3.46,11.09-3.46Z" style="fill:#69A6F8"></path><path d="M347.19,463.54a29.08,29.08,0,0,0-1.33-3.25,27.07,27.07,0,0,0-2.14-2.78,6.7,6.7,0,0,1,3.47,6Z" style="fill:#263238"></path><path d="M350.34,462.11c-.15,0-.45-1.41-1.26-3s-1.75-2.69-1.64-2.79a7.62,7.62,0,0,1,2.9,5.77Z" style="fill:#263238"></path><path d="M353.29,461.32a19.94,19.94,0,0,0-.7-3.2,20.61,20.61,0,0,0-1.65-2.82,4.62,4.62,0,0,1,2.12,2.64A4.55,4.55,0,0,1,353.29,461.32Z" style="fill:#263238"></path><path d="M352.76,457.41a5.26,5.26,0,0,1-.33-2.24,11.31,11.31,0,0,1,.31-2.47,10.77,10.77,0,0,1,.45-1.4,1.77,1.77,0,0,1,.48-.74.81.81,0,0,1,1,.05,1.32,1.32,0,0,1,.4.86,5.29,5.29,0,0,1,0,.79,7,7,0,0,1-.18,1.48,9.32,9.32,0,0,1-.93,2.31,6.26,6.26,0,0,1-1.36,1.82c-.07-.05.44-.75,1-2a9.67,9.67,0,0,0,.79-2.25,6.78,6.78,0,0,0,.15-1.38c0-.46,0-1-.28-1.27a.3.3,0,0,0-.4,0,1.24,1.24,0,0,0-.33.53,11.08,11.08,0,0,0-.46,1.33,12.25,12.25,0,0,0-.4,2.36C352.7,456.55,352.84,457.4,352.76,457.41Z" style="fill:#263238"></path><path d="M352.79,457.11a4.17,4.17,0,0,1,1.95-.32,8.88,8.88,0,0,1,2.15.27,4.4,4.4,0,0,1,1.23.45,1.27,1.27,0,0,1,.68,1.38,1.51,1.51,0,0,1-1.08,1.08,3,3,0,0,1-1.36,0,5.28,5.28,0,0,1-2-1,5.57,5.57,0,0,1-1.41-1.38,11.33,11.33,0,0,1,1.61,1.09,5.47,5.47,0,0,0,1.86.8,2.36,2.36,0,0,0,1.12,0,1,1,0,0,0,.73-.71.79.79,0,0,0-.45-.85,4.48,4.48,0,0,0-1.09-.42,9.55,9.55,0,0,0-2-.36C353.55,457.07,352.81,457.19,352.79,457.11Z" style="fill:#263238"></path><path d="M342.55,463.86a15.88,15.88,0,0,0-.6-2.73,15.71,15.71,0,0,0-1.48-2.36,3.49,3.49,0,0,1,1.95,2.17A3.53,3.53,0,0,1,342.55,463.86Z" style="fill:#263238"></path><path d="M363.63,465.25a5.85,5.85,0,0,1-1.17.55,23.9,23.9,0,0,1-3.36,1,47.75,47.75,0,0,1-11.54,1.1c-4.52-.05-8.6-.26-11.56-.38l-3.5-.18a6.05,6.05,0,0,1-1.28-.14,7.32,7.32,0,0,1,1.29-.06l3.5,0,11.56.22A54,54,0,0,0,359,466.5C361.9,465.9,363.59,465.16,363.63,465.25Z" style="fill:#263238"></path><path d="M364.52,465.94c0,.07-.87-.41-2.26-1a10.46,10.46,0,0,0-5.72-.95,8.94,8.94,0,0,0-4.94,2.94,18.89,18.89,0,0,1-1.74,1.77,9.39,9.39,0,0,1,1.48-2,11.86,11.86,0,0,1,2-1.87,7.06,7.06,0,0,1,3.12-1.32,10,10,0,0,1,6,1.12A8.12,8.12,0,0,1,364.52,465.94Z" style="fill:#263238"></path><path d="M391.84,443.67s28.58,18.71,29.6,19.49c1.54,1.16-.22,6.7-2.89,5.74-1.26-.45-25.25-7.12-27.82-8.13s-9.53-6.66-9.53-6.66Z" style="fill:#69A6F8"></path><path d="M400.32,458.47a5.51,5.51,0,0,1,1.92-3.06,5.3,5.3,0,0,1,3.22-1.62,25.25,25.25,0,0,0-2.88,2A29.38,29.38,0,0,0,400.32,458.47Z" style="fill:#263238"></path><path d="M397.76,456.16a5.7,5.7,0,0,1,1.74-2.82,5.76,5.76,0,0,1,2.77-1.8c.08.14-1.18.89-2.41,2.16S397.89,456.23,397.76,456.16Z" style="fill:#263238"></path><path d="M395.18,454.5a4.64,4.64,0,0,1,1.25-3.14,4.59,4.59,0,0,1,2.82-1.87,20.34,20.34,0,0,0-2.43,2.19A21.83,21.83,0,0,0,395.18,454.5Z" style="fill:#263238"></path><path d="M396.88,451c-.08,0,.31-.81.65-2.14a12.53,12.53,0,0,0,.33-2.37,11.22,11.22,0,0,0,0-1.41,1.29,1.29,0,0,0-.16-.6.29.29,0,0,0-.39-.09c-.32.13-.49.69-.65,1.12a7.65,7.65,0,0,0-.28,1.36,9.58,9.58,0,0,0,.08,2.38c.2,1.36.46,2.18.38,2.21a6.12,6.12,0,0,1-.74-2.15,9,9,0,0,1-.18-2.48,6.44,6.44,0,0,1,.27-1.46,5.22,5.22,0,0,1,.28-.75,1.33,1.33,0,0,1,.64-.69.81.81,0,0,1,1,.26,1.74,1.74,0,0,1,.23.86,10.34,10.34,0,0,1,0,1.47,11.16,11.16,0,0,1-.46,2.44A5.23,5.23,0,0,1,396.88,451Z" style="fill:#263238"></path><path d="M396.94,450.65c0,.07-.71-.27-1.86-.55a9.76,9.76,0,0,0-2.05-.28,4.55,4.55,0,0,0-1.17.07.79.79,0,0,0-.69.67,1,1,0,0,0,.49.91,2.3,2.3,0,0,0,1.06.35,5.33,5.33,0,0,0,2-.2,12.29,12.29,0,0,1,1.86-.55,5.31,5.31,0,0,1-1.76.89,5.17,5.17,0,0,1-2.16.33,2.82,2.82,0,0,1-1.29-.41,1.5,1.5,0,0,1-.71-1.36,1.27,1.27,0,0,1,1.07-1.11,4.94,4.94,0,0,1,1.31-.06,9.53,9.53,0,0,1,2.12.4A4.27,4.27,0,0,1,396.94,450.65Z" style="fill:#263238"></path><path d="M414.91,467.86s-.48-.29-.7-1.11a4.22,4.22,0,0,1,.53-3.1,13.14,13.14,0,0,1,1-1.43,5.45,5.45,0,0,1,1-1,1.69,1.69,0,0,1,.92-.38c.24,0,.36.05.35.08a2.6,2.6,0,0,0-1,.57,7.27,7.27,0,0,0-.82,1.05,15.94,15.94,0,0,0-.89,1.39,4.44,4.44,0,0,0-.63,2.79C414.66,467.42,415,467.81,414.91,467.86Z" style="fill:#263238"></path><path d="M404.65,460.19a4.32,4.32,0,0,1,3.52-4.22,15.84,15.84,0,0,0-2.13,1.81A15.43,15.43,0,0,0,404.65,460.19Z" style="fill:#263238"></path><path d="M384.14,455.12a9,9,0,0,1,1.26.86,33.73,33.73,0,0,0,3.52,2.16,47.78,47.78,0,0,0,5.6,2.49c2.17.81,4.59,1.57,7.16,2.31,5.14,1.48,9.8,2.84,13.16,3.85l4,1.22a10.12,10.12,0,0,1,1.44.51,9.16,9.16,0,0,1-1.5-.32l-4-1.07c-3.39-.92-8.05-2.22-13.2-3.7-2.57-.75-5-1.53-7.18-2.36a40.91,40.91,0,0,1-5.61-2.62,27.78,27.78,0,0,1-3.47-2.31A8.24,8.24,0,0,1,384.14,455.12Z" style="fill:#263238"></path><path d="M383.08,455.5a8.27,8.27,0,0,1,2.43-.64,10,10,0,0,1,6,.73,7.09,7.09,0,0,1,2.57,2.21,12.08,12.08,0,0,1,1.34,2.39,9.29,9.29,0,0,1,.8,2.38,16.3,16.3,0,0,1-1.12-2.23,9.07,9.07,0,0,0-3.82-4.3,10.58,10.58,0,0,0-5.73-.83C384,455.37,383.1,455.58,383.08,455.5Z" style="fill:#263238"></path><path d="M332.44,398s-8.58,3.06-8.62,12.67c-.06,18.42,37.22,38.72,37.22,38.72l49.61-32.87,3.11-1.26S346.79,390.14,332.44,398Z" style="fill:#263238"></path><path d="M385.52,433.15a8.58,8.58,0,0,1-1.29-.87c-.82-.59-2-1.47-3.4-2.56-2.84-2.2-6.7-5.31-10.86-8.88s-7.82-6.92-10.42-9.4c-1.3-1.23-2.34-2.25-3-3a9.86,9.86,0,0,1-1.07-1.15,9.1,9.1,0,0,1,1.2,1l3.15,2.85c2.66,2.41,6.36,5.71,10.51,9.28s8,6.71,10.76,9l3.29,2.68A11,11,0,0,1,385.52,433.15Z" style="fill:#455a64"></path><path d="M346.44,404.91a9.82,9.82,0,0,1,4.78.44,9.64,9.64,0,0,1,4.25,2.23c-.08.13-1.89-1-4.39-1.75S346.44,405.07,346.44,404.91Z" style="fill:#455a64"></path><path d="M350.71,402a7.5,7.5,0,0,1,4.49,5.55c-.14.05-.69-1.49-1.94-3S350.64,402.14,350.71,402Z" style="fill:#455a64"></path><path d="M329.71,460.32c0-.05.59-.17,1.28.39a4.64,4.64,0,0,1,1.43,2.88,5.7,5.7,0,0,1-.45,3.18c-.35.75-.74,1.1-.78,1.07s.2-.47.45-1.21a6.48,6.48,0,0,0,.28-3,5,5,0,0,0-1.17-2.68C330.22,460.43,329.7,460.41,329.71,460.32Z" style="fill:#263238"></path><polygon points="343.85 367.94 361.52 412.73 437.6 413.97 439.01 409.86 412.34 408.89 399.53 369.15 343.85 367.94" style="fill:#455a64"></polygon><path d="M379.38,387.33a3.4,3.4,0,0,0-3.66.39A3,3,0,0,0,375,391a3.19,3.19,0,0,0,2.75,1.92,2.88,2.88,0,0,0,2.91-1.92,3.25,3.25,0,0,0-1.28-3.63" style="fill:#ebebeb"></path><path d="M356.34,451.66s70.1-46,73-46.93,9.8-5.51,16.74-3.59,13.15,8.13,16.26,17.22c1.78,5.19,2.62,14.05,3,20.7A30.74,30.74,0,0,1,458.14,461a19.58,19.58,0,0,1-8.74,6.2,22.84,22.84,0,0,1-2.27.59,33,33,0,0,1-34.32-14.4l-1.63-2.49s-45.86,16.84-46.57,16.6Z" style="fill:#263238"></path><path d="M443.06,439a4.09,4.09,0,0,1-.38.17l-1.15.46-4.45,1.71-16.51,6.22c-7,2.62-15.42,5.73-24.85,9.16s-19.88,7.19-31,11l-.21.07-.1-.19-5.47-10.46-2.79-5.33-.11-.21.19-.12,53.47-33.94,16.06-10.13,4.37-2.73,1.13-.69c.26-.16.4-.23.4-.23s-.12.1-.37.27l-1.11.74-4.32,2.8-16,10.26-53.38,34.07.08-.33,2.8,5.34,5.47,10.46-.3-.12c11.15-3.77,21.6-7.52,31-10.92l24.88-9.05L437,441.17l4.48-1.63,1.16-.41Z" style="fill:#455a64"></path><path d="M411.84,300.72a16.59,16.59,0,0,1,1.74-25.81,33,33,0,0,1,7-3.4,12.62,12.62,0,0,1,5.68-1.27c1.32.11,2.56.64,3.87.77,1.66.16,3.31-.31,5-.31a8.86,8.86,0,0,1,6.88,3.41c2.44,3.2,2.64,8,5.87,10.39.61.45,1.34.85,1.56,1.57a1.88,1.88,0,0,1-.93,2,5.52,5.52,0,0,1-2.24.63,4.33,4.33,0,0,1,2.19,3.18c0,1.34-1.5,2.65-2.65,2a2.44,2.44,0,0,1,2.18,2.55,3.2,3.2,0,0,1-2.24,2.72,4.7,4.7,0,0,1-3.62-.46" style="fill:#263238"></path><path d="M449.41,286.07c-.22-.72-1-1.12-1.56-1.57-3.23-2.39-3.43-7.19-5.87-10.39a8.86,8.86,0,0,0-6.88-3.41c-1.67,0-3.32.47-5,.31-1.31-.13-2.55-.66-3.87-.77a12.62,12.62,0,0,0-5.68,1.27,33,33,0,0,0-7,3.4c-4.06,2.83-8.07,12.11-5.53,16.35s2.17,6.82,5.81,10.17l28.24-2.78a4.7,4.7,0,0,0,3.62.46,3.2,3.2,0,0,0,2.24-2.72,2.53,2.53,0,0,0-1.49-2.39,2.17,2.17,0,0,0,2-2.13,4.33,4.33,0,0,0-2.19-3.18,5.52,5.52,0,0,0,2.24-.63A1.88,1.88,0,0,0,449.41,286.07Z" style="fill:#263238"></path><path d="M443.69,290.69l5.15,37.45a11.23,11.23,0,0,1-10.16,12.73h0a11.25,11.25,0,0,1-12.12-9.68c-.38-2.82-.71-5.17-.77-5.46,0,0-9.65.41-11.64-8.93-1-4.51-2.18-14-3.19-22.54a17.78,17.78,0,0,1,14.19-19.5l.9-.18C435.91,273.2,442.59,280.8,443.69,290.69Z" style="fill:#ffbe9d"></path><path d="M425.75,325.6a22.19,22.19,0,0,0,11.51-5.91S435.72,327,426.21,328Z" style="fill:#eb996e"></path><path d="M415.16,300.92a1.37,1.37,0,0,0,1.56,1.09,1.31,1.31,0,0,0,1.14-1.48,1.37,1.37,0,0,0-1.56-1.09A1.31,1.31,0,0,0,415.16,300.92Z" style="fill:#263238"></path><path d="M413.89,298.46c.2.14,1.07-.81,2.51-1.1s2.63.23,2.76,0-.18-.37-.7-.62a3.79,3.79,0,0,0-2.25-.23,3.62,3.62,0,0,0-1.95,1.09C413.88,298.05,413.8,298.39,413.89,298.46Z" style="fill:#263238"></path><path d="M429.36,298.67a1.37,1.37,0,0,0,1.56,1.09,1.31,1.31,0,0,0,1.14-1.48,1.38,1.38,0,0,0-1.56-1.1A1.3,1.3,0,0,0,429.36,298.67Z" style="fill:#263238"></path><path d="M428.09,295.9c.2.14,1.07-.81,2.5-1.1s2.64.23,2.76,0-.17-.37-.69-.62a3.81,3.81,0,0,0-2.26-.23,3.7,3.7,0,0,0-1.95,1.09C428.08,295.49,428,295.84,428.09,295.9Z" style="fill:#263238"></path><path d="M425,307.61a9.71,9.71,0,0,0-2.42.05c-.38,0-.74,0-.85-.21a1.86,1.86,0,0,1,0-1.14c.17-.95.34-2,.53-3,.71-4.29,1.15-7.78,1-7.81s-.89,3.43-1.6,7.71c-.17,1.06-.33,2.06-.48,3a2.19,2.19,0,0,0,.1,1.48.93.93,0,0,0,.71.42,2.13,2.13,0,0,0,.64,0A9,9,0,0,0,425,307.61Z" style="fill:#263238"></path><path d="M429.43,307.76c-.23,0,.08,1.6-1,3s-2.81,1.54-2.78,1.76.43.23,1.14.11a4,4,0,0,0,2.34-1.38,3.42,3.42,0,0,0,.77-2.47C429.79,308.08,429.54,307.73,429.43,307.76Z" style="fill:#263238"></path><path d="M426.59,290.33c.22.37,1.62-.11,3.35-.24s3.19.05,3.34-.34c.07-.19-.24-.51-.87-.78a5.87,5.87,0,0,0-5.1.45C426.74,289.79,426.49,290.16,426.59,290.33Z" style="fill:#263238"></path><path d="M413.59,294.19c.32.27,1.24-.27,2.43-.52s2.25-.22,2.41-.61c.07-.18-.16-.48-.66-.7a3.44,3.44,0,0,0-2.09-.14,3.5,3.5,0,0,0-1.81,1C413.52,293.68,413.45,294.05,413.59,294.19Z" style="fill:#263238"></path><path d="M444.31,297.78c.15-.1,6.05-3.19,7.13,3.25s-5.62,6.19-5.66,6S444.31,297.78,444.31,297.78Z" style="fill:#ffbe9d"></path><path d="M447.34,304.27s.13.06.33.12a1.12,1.12,0,0,0,.84-.13,2.79,2.79,0,0,0,.87-2.7,3.7,3.7,0,0,0-.58-1.56,1.31,1.31,0,0,0-1-.72.59.59,0,0,0-.61.42c-.05.2,0,.32,0,.33s-.16-.08-.15-.36a.68.68,0,0,1,.18-.44.87.87,0,0,1,.6-.27,1.6,1.6,0,0,1,1.34.8,3.86,3.86,0,0,1,.68,1.73,2.94,2.94,0,0,1-1.17,3.06,1.22,1.22,0,0,1-1.05,0C447.38,304.42,447.32,304.29,447.34,304.27Z" style="fill:#eb996e"></path><path d="M409.11,285.57c1.1,2.38,6.79,3.3,11,2,3.84-1.16,5.23-3.6,7.67-5.73,1.55-1.34,1.55-1.34,4.07-1.6,2-.21,3.68,1.82,5.22,3.17-.86,5.12,1.42,10.19,3.64,14.88a2.58,2.58,0,0,0,1,1.33c.87.43,1.92-.25,2.44-1.07a8.12,8.12,0,0,0,.9-4.52,26.65,26.65,0,0,0-2.14-10.37,18.23,18.23,0,0,0-6.73-8.07,17.3,17.3,0,0,0-12.81-2.12,21.33,21.33,0,0,0-11.24,6.74,12.48,12.48,0,0,0-3,5.32" style="fill:#263238"></path><path d="M422.21,301.14s0-.56-.29-1.5a6.23,6.23,0,0,0-2.28-3.31,6.06,6.06,0,0,0-5.7-.82,5.89,5.89,0,0,0-2.77,2.1,6,6,0,0,0,0,7.06,5.89,5.89,0,0,0,2.77,2.1,6.05,6.05,0,0,0,5.7-.82,6.23,6.23,0,0,0,2.28-3.31c.26-.95.24-1.5.29-1.5a1.17,1.17,0,0,1,0,.4,4.73,4.73,0,0,1-.13,1.15,6.22,6.22,0,0,1-2.26,3.55,6.38,6.38,0,0,1-6.08,1,6.31,6.31,0,0,1-3-2.25,6.43,6.43,0,0,1,9.1-8.93,6.19,6.19,0,0,1,2.26,3.55,4.68,4.68,0,0,1,.13,1.15A1.17,1.17,0,0,1,422.21,301.14Z" style="fill:#263238"></path><path d="M437.5,298.47c-.06,0,0-.56-.3-1.5a6.23,6.23,0,0,0-2.28-3.31,6.05,6.05,0,0,0-5.7-.82,5.89,5.89,0,0,0-2.77,2.1,6,6,0,0,0,0,7.06,5.89,5.89,0,0,0,2.77,2.1,6.05,6.05,0,0,0,5.7-.82A6.18,6.18,0,0,0,437.2,300c.26-.94.24-1.5.3-1.5a2.12,2.12,0,0,1,0,.4,4.68,4.68,0,0,1-.13,1.15,6.22,6.22,0,0,1-2.25,3.55,6.45,6.45,0,1,1,0-10.2,6.19,6.19,0,0,1,2.26,3.55,4.68,4.68,0,0,1,.13,1.15A2.12,2.12,0,0,1,437.5,298.47Z" style="fill:#263238"></path><path d="M424.91,298.69c-.07.13-.89-.26-1.84,0s-1.43,1-1.55,1,0-.28.18-.6a2.3,2.3,0,0,1,2.72-.82C424.78,298.44,424.94,298.63,424.91,298.69Z" style="fill:#263238"></path><path d="M446.15,296.82a39.8,39.8,0,0,1-9.17-.13,20.68,20.68,0,0,1,4.59-.19A20.4,20.4,0,0,1,446.15,296.82Z" style="fill:#263238"></path><path d="M435.1,270.7c0,.11-1.59,0-4.09.21a14.15,14.15,0,0,0-4.25,1,11.27,11.27,0,0,0-4.22,3.2A21.52,21.52,0,0,0,418.4,284a4.65,4.65,0,0,0,.27,2.86c.3.63.6.9.56.93s-.37-.2-.74-.84a4.62,4.62,0,0,1-.45-3,20.4,20.4,0,0,1,4.1-9.06,11.35,11.35,0,0,1,4.43-3.31,13.93,13.93,0,0,1,4.4-1,22.77,22.77,0,0,1,3,0A5.64,5.64,0,0,1,435.1,270.7Z" style="fill:#455a64"></path><path d="M425.61,270.33a11.28,11.28,0,0,0-3.16.82,10.28,10.28,0,0,0-5.05,5.77,18.27,18.27,0,0,0-.71,7.84c.21,2,.46,3.29.38,3.31a2.75,2.75,0,0,1-.28-.86c-.14-.56-.31-1.38-.46-2.41a17,17,0,0,1,.57-8.06,10.2,10.2,0,0,1,5.4-5.92,6.65,6.65,0,0,1,2.41-.56A2.5,2.5,0,0,1,425.61,270.33Z" style="fill:#455a64"></path><path d="M447.41,288.6a3.42,3.42,0,0,1-1.82.24,9.52,9.52,0,0,1-4.23-1.34,17,17,0,0,1-3.45-2.77,5.82,5.82,0,0,1-1.17-1.41,7.37,7.37,0,0,1,1.42,1.14,23.46,23.46,0,0,0,3.46,2.59,10.81,10.81,0,0,0,4,1.42C446.71,288.61,447.4,288.52,447.41,288.6Z" style="fill:#455a64"></path><path d="M447.4,283.63a3.83,3.83,0,0,1-2.9.33,9.51,9.51,0,0,1-3-1.18c-1-.59-2.11-1.35-3.3-2a9.5,9.5,0,0,0-6.65-.76,20.11,20.11,0,0,0-2.68,1s.19-.22.62-.49a7.66,7.66,0,0,1,2-.88,9.26,9.26,0,0,1,7,.65c1.25.64,2.3,1.41,3.31,2a10,10,0,0,0,2.82,1.23A6.84,6.84,0,0,0,447.4,283.63Z" style="fill:#455a64"></path><path d="M444.51,279.34a9.16,9.16,0,0,1-.63-1.14,11.07,11.07,0,0,0-2-2.84,4.73,4.73,0,0,0-2-1.13,5.93,5.93,0,0,0-2.69,0,11.37,11.37,0,0,0-5.41,3.07,52,52,0,0,0-4.26,4.79,26,26,0,0,1-3.75,3.75,11,11,0,0,1-3.12,1.74,6.76,6.76,0,0,1-.94.26c-.22,0-.34.05-.34,0a13.34,13.34,0,0,0,4.17-2.32,27.54,27.54,0,0,0,3.61-3.77,47.93,47.93,0,0,1,4.27-4.86,11.65,11.65,0,0,1,5.68-3.16,6.41,6.41,0,0,1,2.9.08,5.09,5.09,0,0,1,2.17,1.29,9.84,9.84,0,0,1,1.94,3A5,5,0,0,1,444.51,279.34Z" style="fill:#e0e0e0"></path></g></svg>