<?xml version="1.0" encoding="utf-8"?>
<!-- Generator: Adobe Illustrator 25.3.1, SVG Export Plug-In . SVG Version: 6.00 Build 0)  -->
<svg version="1.1" id="Layer_1" xmlns="http://www.w3.org/2000/svg" xmlns:xlink="http://www.w3.org/1999/xlink" x="0px" y="0px"
	 viewBox="0 0 32 32" style="enable-background:new 0 0 32 32;" xml:space="preserve">
<style type="text/css">
	.st0{fill:#F7EFE5;}
</style>
<path class="st0" d="M15.6,5.8c-4.2,0-8.2,0.3-10.3,0.8C3.9,6.8,2.7,7.8,2.4,9.3c-0.3,1.5-0.5,3.8-0.5,6.7s0.3,5.1,0.6,6.7
	c0.3,1.4,1.5,2.4,2.9,2.8c2.2,0.4,6.1,0.8,10.3,0.8s8.1-0.3,10.3-0.8c1.4-0.3,2.6-1.3,2.9-2.8c0.3-1.6,0.6-3.9,0.6-6.8
	c0-2.9-0.3-5.2-0.6-6.8c-0.3-1.4-1.5-2.4-2.9-2.8C23.7,6.1,19.8,5.8,15.6,5.8z M15.6,7c4.6,0,8.3,0.4,10.1,0.7
	c1,0.3,1.7,0.9,1.9,1.7c0.4,2,0.6,4.2,0.6,6.5c-0.1,2.8-0.4,5-0.6,6.6c-0.2,1.2-1.5,1.6-1.9,1.7c-2.3,0.4-6.1,0.8-10,0.8
	s-7.7-0.3-10-0.8c-1-0.3-1.7-0.9-1.9-1.7c-0.5-1.8-0.7-4.2-0.7-6.5c0-2.9,0.3-5.1,0.5-6.5c0.2-1.2,1.5-1.6,1.9-1.7
	C7.7,7.4,11.6,7,15.6,7z M12.2,10.9v10.2l9-5.1L12.2,10.9z M13.4,13.1l5.1,2.9l-5.1,2.9V13.1z"/>
</svg>
