<?xml version="1.0" encoding="utf-8"?>
<!-- Generator: Adobe Illustrator 25.3.1, SVG Export Plug-In . SVG Version: 6.00 Build 0)  -->
<svg version="1.1" id="Layer_1" xmlns="http://www.w3.org/2000/svg" xmlns:xlink="http://www.w3.org/1999/xlink" x="0px" y="0px"
	 viewBox="0 0 32 32" style="enable-background:new 0 0 32 32;" xml:space="preserve">
<style type="text/css">
	.st0{fill:#F7EFE5;}
</style>
<path class="st0" d="M5.8,2.6C4,2.6,2.6,4,2.6,5.8v20.5c0,1.8,1.4,3.2,3.2,3.2h20.5c1.8,0,3.2-1.4,3.2-3.2V5.8
	c0-1.8-1.4-3.2-3.2-3.2H5.8z M5.8,3.8h20.5c1.1,0,1.9,0.9,1.9,1.9v20.5c0,1.1-0.9,1.9-1.9,1.9H5.8c-1.1,0-1.9-0.9-1.9-1.9V5.8
	C3.8,4.7,4.7,3.8,5.8,3.8z M10.2,10.9c-2.8,0-5.1,2.3-5.1,5.1s2.3,5.1,5.1,5.1s5.1-2.3,5.1-5.1S13.1,10.9,10.2,10.9z M21.8,10.9
	c-2.8,0-5.1,2.3-5.1,5.1s2.3,5.1,5.1,5.1s5.1-2.3,5.1-5.1S24.6,10.9,21.8,10.9z M10.2,12.2c2.1,0,3.8,1.7,3.8,3.8s-1.7,3.8-3.8,3.8
	S6.4,18.1,6.4,16S8.1,12.2,10.2,12.2z M21.8,12.2c2.1,0,3.8,1.7,3.8,3.8s-1.7,3.8-3.8,3.8s-3.8-1.7-3.8-3.8S19.6,12.2,21.8,12.2z"/>
</svg>
