<?xml version="1.0" encoding="utf-8"?>
<!-- Generator: Adobe Illustrator 25.3.1, SVG Export Plug-In . SVG Version: 6.00 Build 0)  -->
<svg version="1.1" id="Layer_1" xmlns="http://www.w3.org/2000/svg" xmlns:xlink="http://www.w3.org/1999/xlink" x="0px" y="0px"
	 viewBox="0 0 32 32" style="enable-background:new 0 0 32 32;" xml:space="preserve">
<style type="text/css">
	.st0{fill:#F7EFE5;}
</style>
<path class="st0" d="M5.8,2.6C4,2.6,2.6,4,2.6,5.8v20.5c0,1.8,1.4,3.2,3.2,3.2h20.5c1.8,0,3.2-1.4,3.2-3.2V5.8
	c0-1.8-1.4-3.2-3.2-3.2H5.8z M5.8,3.8h20.5c1.1,0,1.9,0.9,1.9,1.9v20.5c0,1.1-0.9,1.9-1.9,1.9H5.8c-1.1,0-1.9-0.9-1.9-1.9V5.8
	C3.8,4.7,4.7,3.8,5.8,3.8z M7,10.2c-0.4,0-0.6,0.3-0.6,0.6v10.2c0,0.4,0.3,0.6,0.6,0.6h4.9c0,0,0,0,0,0c0.3,0,1.2,0,2.1-0.5
	c1-0.4,1.9-1.5,1.9-3.1c0-1-0.3-1.8-0.8-2.3c-0.2-0.2-0.4-0.2-0.6-0.4c0.4-0.5,0.7-1.1,0.7-2.1c0-1.5-0.8-2.5-1.7-2.9
	c-0.9-0.4-1.7-0.3-2-0.3H7z M19.2,10.2c-0.4,0-0.6,0.3-0.6,0.6c0,0.4,0.3,0.6,0.6,0.6c0,0,0,0,0,0H23c0.4,0,0.6-0.3,0.6-0.6
	c0-0.4-0.3-0.6-0.6-0.6c0,0,0,0,0,0H19.2z M7.7,11.5h4c0.3,0,0.9,0,1.4,0.2c0.5,0.2,0.9,0.6,0.9,1.7c0,1.2-0.5,1.4-0.7,1.6
	c-0.3,0.2-0.4,0.5-0.3,0.9c0.1,0.1,0.2,0.3,0.4,0.3c0.2,0.1,0.6,0.2,0.8,0.5c0.3,0.3,0.5,0.7,0.5,1.5c0,1.2-0.5,1.6-1.2,1.9
	c-0.7,0.3-1.5,0.4-1.6,0.4H7.7V11.5z M21.1,12.2c-0.6,0-1.7,0.1-2.6,0.8c-1,0.7-1.8,2-1.8,4c0,1.9,0.8,3.2,1.7,3.9
	c1,0.7,2.1,0.9,2.8,0.9c1.6,0,2.8-0.6,3.5-1.3c0.6-0.7,0.8-1.6,0.9-2.3c0-0.1,0-0.1,0-0.2c0,0,0,0,0,0c0,0,0,0,0,0c0,0,0,0,0-0.1
	c0,0,0,0,0,0c0-1.2-0.1-2.5-0.7-3.6C24.3,13,23,12.2,21.1,12.2z M9.6,12.8v1.9h1.7c0.2,0,1-0.1,1-1c0-0.9-1-0.9-1.1-0.9H9.6z
	 M21.1,13.4c1.5,0,2.2,0.6,2.7,1.4c0.4,0.7,0.5,1.6,0.5,2.5h-1.9h-2.6c-0.4,0-0.6,0.3-0.6,0.6c0,0,0,0.2,0.1,0.3
	c0,0.1,0.1,0.3,0.3,0.5c0.3,0.3,0.8,0.5,1.6,0.5c0.7,0,1.3-0.2,1.6-0.5c0,0,0-0.1,0.1-0.1h1.4c-0.1,0.4-0.2,0.7-0.5,1
	c-0.4,0.5-1.2,0.9-2.5,0.9c-0.5,0-1.4-0.2-2.1-0.7c-0.7-0.5-1.2-1.3-1.2-2.9c0-1.7,0.6-2.5,1.3-2.9C19.9,13.5,20.7,13.4,21.1,13.4z
	 M21.2,14.5c-0.4,0-0.6,0-0.9,0.1c-0.2,0.1-0.4,0.2-0.5,0.4c-0.1,0.1-0.2,0.3-0.3,0.5c-0.1,0.1-0.1,0.3-0.1,0.5h3.5
	c-0.1-0.5-0.2-0.9-0.5-1.1C22.1,14.6,21.7,14.5,21.2,14.5z M9.6,16.6v2.5h1.9c0.2,0,1.3-0.1,1.3-1.2c0-1.2-0.9-1.3-1.3-1.3H9.6z"/>
</svg>
