<?xml version="1.0" encoding="utf-8"?>
<!-- Generator: Adobe Illustrator 25.3.1, SVG Export Plug-In . SVG Version: 6.00 Build 0)  -->
<svg version="1.1" id="Layer_1" xmlns="http://www.w3.org/2000/svg" xmlns:xlink="http://www.w3.org/1999/xlink" x="0px" y="0px"
	 viewBox="0 0 48 48" style="enable-background:new 0 0 48 48;" xml:space="preserve">
<style type="text/css">
	.st0{fill:#F7EFE5;}
</style>
<path class="st0" d="M15.4,2.9C8.5,2.9,2.9,8.5,2.9,15.4v17.3c0,6.9,5.6,12.5,12.5,12.5h17.3c6.9,0,12.5-5.6,12.5-12.5V15.4
	c0-6.9-5.6-12.5-12.5-12.5H15.4z M15.4,4.8h17.3c5.8,0,10.6,4.7,10.6,10.6v17.3c0,5.8-4.7,10.6-10.6,10.6H15.4
	c-5.8,0-10.6-4.7-10.6-10.6V15.4C4.8,9.5,9.5,4.8,15.4,4.8z M35.5,10.6c-1.1,0-1.9,0.9-1.9,1.9s0.9,1.9,1.9,1.9
	c1.1,0,1.9-0.9,1.9-1.9S36.6,10.6,35.5,10.6z M24,13.4c-5.8,0-10.6,4.7-10.6,10.6S18.2,34.6,24,34.6S34.6,29.8,34.6,24
	S29.8,13.4,24,13.4z M24,15.4c4.8,0,8.6,3.9,8.6,8.6s-3.9,8.6-8.6,8.6s-8.6-3.9-8.6-8.6S19.2,15.4,24,15.4z"/>
</svg>
