<?xml version="1.0" encoding="utf-8"?>
<!-- Generator: Adobe Illustrator 25.3.1, SVG Export Plug-In . SVG Version: 6.00 Build 0)  -->
<svg version="1.1" id="Layer_1" xmlns="http://www.w3.org/2000/svg" xmlns:xlink="http://www.w3.org/1999/xlink" x="0px" y="0px"
	 viewBox="0 0 48 48" style="enable-background:new 0 0 48 48;" xml:space="preserve">
<style type="text/css">
	.st0{fill:#FFFFFF;}
</style>
<path class="st0" d="M32.7,2.8H15.3C8.5,2.8,2.8,8.5,2.8,15.3v17.3c0,6.9,5.6,12.5,12.5,12.5h17.3c6.9,0,12.5-5.6,12.5-12.5V15.3
	C45.2,8.5,39.5,2.8,32.7,2.8z M31.9,25l-0.5,3.4H26v14.8h-4V28.4h-5V25h5v-4.5c0-2.8,0.7-4.6,1.8-5.7c1.1-1.1,2.7-1.7,5-1.7
	c1.8,0,2.5,0.1,3.2,0.2V16h-2.3c-1.3,0-2.4,0.7-3,1.7c-0.6,1-0.7,2.2-0.7,3.4V25H31.9z M43.2,32.7c0,5.8-4.7,10.6-10.6,10.6h-5v-0.5
	v-6.3v-6.2h5.1l1.1-7.2h-6.2v-1.9c0-1,0.2-1.9,0.5-2.4s0.6-0.8,1.3-0.8h4.3v-6.4L33,11.5c-0.6-0.1-1.9-0.3-4.3-0.3
	c-2.6,0-4.8,0.7-6.4,2.3c-1.5,1.6-2.3,4-2.3,7.1v2.6h-5v7.2h5v2.5h0v10.4h-4.7c-5.8,0-10.6-4.7-10.6-10.6V15.3
	c0-5.9,4.7-10.6,10.6-10.6h17.3c5.8,0,10.6,4.7,10.6,10.6V32.7z"/>
</svg>
