<?xml version="1.0" encoding="utf-8"?>
<!-- Generator: Adobe Illustrator 25.3.1, SVG Export Plug-In . SVG Version: 6.00 Build 0)  -->
<svg version="1.1" id="Layer_1" xmlns="http://www.w3.org/2000/svg" xmlns:xlink="http://www.w3.org/1999/xlink" x="0px" y="0px"
	 viewBox="0 0 96 48" style="enable-background:new 0 0 96 48;" xml:space="preserve">
<style type="text/css">
	.st0{fill:#69A6F8;}
</style>
<g>
	<path class="st0" d="M14.7,37V14.3H8.3c-1.8,0-3-1.1-3-2.7S6.5,9,8.3,9h19.4c1.8,0,2.9,1.1,2.9,2.7s-1.2,2.7-2.9,2.7h-6.6V37
		c0,2.1-1.2,3.4-3.2,3.4S14.7,39.1,14.7,37z"/>
	<path class="st0" d="M27,33.4c0-4.3,3.2-6.6,8.9-7l5.9-0.4v-1.6c0-2.1-1.4-3.4-3.9-3.4c-2,0-3,0.7-4.5,2.5
		c-0.7,0.7-1.4,1.2-2.5,1.2c-1.6,0-2.7-1.1-2.7-2.5c0-0.5,0.2-0.9,0.4-1.4c1.1-2.7,4.8-4.5,9.6-4.5c5.9,0,9.8,3,9.8,7.7v13.2
		c0,2.1-1.2,3.2-3,3.2s-2.9-0.9-3-2.9v-1.2h-0.2c-1.2,2.5-4.1,3.9-7.1,3.9C30.4,40.4,27,37.5,27,33.4z M41.8,31.4v-1.6L37,30.2
		c-2.3,0.2-3.7,1.2-3.7,2.9c0,1.8,1.4,2.9,3.6,2.9C39.4,35.7,41.8,33.9,41.8,31.4z"/>
	<path class="st0" d="M52.5,37V11.8c0-2.1,1.2-3.4,3.2-3.4s3.2,1.2,3.2,3.4v9.6H73v-9.6c0-2.1,1.2-3.4,3.2-3.4s3.2,1.2,3.2,3.4V37
		c0,2.1-1.2,3.4-3.2,3.4S73,39.2,73,37V26.8H58.9V37c0,2.1-1.2,3.4-3.2,3.4S52.5,39.1,52.5,37z"/>
	<path class="st0" d="M84,10.8c0-1.8,1.4-3.2,3.4-3.2s3.4,1.4,3.4,3.2S89.4,14,87.4,14S84,12.6,84,10.8z M84.4,37.2V19.7
		c0-2,1.2-3.2,3.2-3.2s3.2,1.2,3.2,3.2v17.5c0,2-1.2,3.2-3.2,3.2C85.4,40.4,84.4,39.1,84.4,37.2z"/>
</g>
</svg>
