<?xml version="1.0" encoding="utf-8"?>
<!-- Generator: Adobe Illustrator 25.3.1, SVG Export Plug-In . SVG Version: 6.00 Build 0)  -->
<svg version="1.1" id="Layer_1" xmlns="http://www.w3.org/2000/svg" xmlns:xlink="http://www.w3.org/1999/xlink" x="0px" y="0px"
	 viewBox="0 0 24 24" style="enable-background:new 0 0 24 24;" xml:space="preserve">
<style type="text/css">
	.st0{fill:none;}
	.st1{fill:#FFFFFF;}
</style>
<g>
	<rect class="st0" width="24" height="24"/>
</g>
<path class="st1" d="M24,17.8C24,17.8,24,17.8,24,17.8c-0.3,1.3-1.2,2-2.4,2.1c0,0,0,0,0,0c-6.3,0-12.7,0-19,0c-1.1,0-2-0.6-2.3-1.6
	C0.1,18,0,17.7,0,17.4c0-3.5,0-7,0-10.5c0-1.4,1-2.4,2.4-2.4c0.6,0,1.2,0,1.8,0c5.8,0,11.6,0,17.3,0c1.1,0,2,0.6,2.4,1.6
	c0,0.1,0.1,0.3,0.1,0.4C24,10.3,24,14,24,17.8z M1.6,5.7c0.1,0.1,0.1,0.1,0.2,0.2c3.3,2.8,6.7,5.6,10,8.5c0.2,0.1,0.2,0.1,0.4,0
	c3.1-2.7,6.3-5.3,9.4-7.9c0.3-0.2,0.5-0.4,0.8-0.7c-0.3-0.2-0.6-0.3-0.9-0.3c-2.2,0-4.3,0-6.5,0c-4.2,0-8.4,0-12.6,0
	C2.2,5.4,1.9,5.5,1.6,5.7z M1.6,18.6c0.3,0.2,0.6,0.3,0.9,0.3c2.8,0,5.5,0,8.3,0c3.6,0,7.2,0,10.7,0c0.3,0,0.6,0,0.9-0.3
	c-2.3-2-4.7-3.9-7-5.9c-0.1,0.1-0.2,0.2-0.3,0.3c-0.9,0.8-1.8,1.5-2.7,2.3c-0.3,0.3-0.5,0.3-0.8,0c-0.7-0.6-1.5-1.2-2.2-1.9
	c-0.3-0.2-0.6-0.5-0.8-0.7C6.2,14.7,3.9,16.7,1.6,18.6z M1,6.4c0,0.2-0.1,0.3-0.1,0.4c0,3.5,0,7.1,0,10.6c0,0.1,0,0.3,0.1,0.4
	c2.3-1.9,4.6-3.8,6.8-5.8C5.6,10.2,3.3,8.3,1,6.4z M16.2,12.2c2.3,1.9,4.5,3.8,6.8,5.7c0.1-0.4,0.1-11.2,0-11.5
	C20.7,8.3,18.5,10.2,16.2,12.2z"/>
</svg>
