<?xml version="1.0" encoding="utf-8"?>
<!-- Generator: Adobe Illustrator 25.3.1, SVG Export Plug-In . SVG Version: 6.00 Build 0)  -->
<svg version="1.1" id="Layer_1" xmlns="http://www.w3.org/2000/svg" xmlns:xlink="http://www.w3.org/1999/xlink" x="0px" y="0px"
	 viewBox="0 0 24 24" style="enable-background:new 0 0 24 24;" xml:space="preserve">
<style type="text/css">
	.st0{fill:#FFFFFF;}
</style>
<g>
	<path class="st0" d="M24,12c-0.1,0.5-0.1,1-0.2,1.5c-0.6,2.7-2,4.9-4.2,6.6c-2.6,2-5.6,2.8-8.8,2.5c-0.6-0.1-1.2-0.2-1.8-0.3
		c-0.1,0-0.3,0-0.4,0c-1.2,0.5-2.4,1.1-3.5,1.6c-0.5,0.2-0.8-0.1-0.8-0.5c0-1.1,0-2.1,0-3.2c0-0.2,0-0.3-0.2-0.4
		c-2.3-1.9-3.7-4.3-4-7.3C-0.3,9,0.8,6.1,3.2,3.6c1.8-1.9,4-3,6.5-3.4c0.3-0.1,0.6,0.1,0.6,0.4c0,0.3-0.1,0.5-0.5,0.6
		c-1.8,0.3-3.5,1-5,2.2c-2.7,2.1-4.1,4.9-4,8.3c0.1,3.1,1.5,5.5,3.8,7.5c0.3,0.2,0.4,0.4,0.4,0.8c0,0.9,0,1.9,0,2.9
		c0.1,0,0.2-0.1,0.3-0.1c1-0.5,2-0.9,3-1.4c0.2-0.1,0.4-0.1,0.6-0.1c2.8,0.7,5.6,0.5,8.2-0.8c2.7-1.3,4.6-3.4,5.4-6.3
		c1-3.4,0.3-6.5-1.9-9.2c-1.7-2.1-4-3.3-6.6-3.8c-0.3-0.1-0.4-0.2-0.5-0.4c0-0.3,0.2-0.6,0.6-0.5c0.6,0.1,1.1,0.2,1.7,0.4
		c3.2,1.1,5.7,3.1,7.1,6.3c0.5,1.1,0.8,2.3,0.9,3.5c0,0.1,0,0.2,0,0.2C24,11.1,24,11.6,24,12z"/>
	<path class="st0" d="M12.1,0c0,0,0.1,0.1,0.1,0.1c0.2,0.1,0.3,0.3,0.2,0.5c-0.1,0.2-0.2,0.3-0.5,0.3c-0.2,0-0.4-0.1-0.4-0.3
		c-0.1-0.2,0-0.4,0.2-0.5c0,0,0.1-0.1,0.1-0.1C12,0,12,0,12.1,0z"/>
	<path class="st0" d="M13.4,15.4c-0.2-0.1-0.3-0.2-0.4-0.3c-0.8-0.8-1.6-1.5-2.3-2.3c-0.1-0.1-0.2-0.1-0.4-0.1
		c-1.7,0.8-3.3,1.7-5,2.5c0,0-0.1,0-0.1,0.1c-0.3,0.1-0.5,0.1-0.6-0.1c-0.1-0.2-0.1-0.4,0-0.6c0.5-0.6,1-1.2,1.5-1.8
		c1.3-1.7,2.7-3.3,4-5c0.3-0.4,0.6-0.4,1,0c0.8,0.8,1.5,1.5,2.3,2.3c0.1,0.1,0.2,0.1,0.4,0.1c1.6-0.8,3.3-1.6,4.9-2.5
		c0.1,0,0.1-0.1,0.2-0.1c0.2-0.1,0.4-0.1,0.6,0.1c0.2,0.2,0.2,0.4,0,0.6C19,8.6,18.6,9,18.3,9.5c-1.5,1.8-2.9,3.7-4.4,5.5
		C13.7,15.1,13.6,15.2,13.4,15.4z M13.4,14.1c1.3-1.6,2.6-3.3,3.9-4.9c-1.2,0.5-2.4,1.1-3.5,1.7c-0.4,0.2-0.5,0.2-0.8-0.1
		c-0.7-0.7-1.4-1.4-2.2-2.2c-0.1-0.1-0.1-0.1-0.2-0.2c-1.3,1.6-2.6,3.3-3.9,4.9c1.2-0.5,2.3-1.1,3.5-1.7c0.4-0.2,0.5-0.2,0.9,0.1
		c0.3,0.3,0.5,0.5,0.8,0.8C12.3,13.1,12.8,13.6,13.4,14.1z"/>
</g>
</svg>
