<?xml version="1.0" encoding="utf-8"?>
<!-- Generator: Adobe Illustrator 25.3.1, SVG Export Plug-In . SVG Version: 6.00 Build 0)  -->
<svg version="1.1" id="Layer_1" xmlns="http://www.w3.org/2000/svg" xmlns:xlink="http://www.w3.org/1999/xlink" x="0px" y="0px"
	 viewBox="0 0 24 24" style="enable-background:new 0 0 24 24;" xml:space="preserve">
<style type="text/css">
	.st0{fill:none;}
	.st1{fill:#FFFFFF;}
</style>
<g>
	<rect class="st0" width="24" height="24"/>
</g>
<g>
	<path class="st1" d="M15.4,24c-0.3-0.1-0.6-0.1-0.9-0.2c-1-0.4-2-0.9-2.9-1.4c-5.1-2.9-8.8-7.1-11.2-12.3C-0.4,8.3,0,6.2,1.4,4.7
		c0.7-0.7,1.3-1.4,2-2c0.3-0.3,0.5-0.3,0.8,0C5.8,4.3,7.5,6,9.1,7.6c0.3,0.3,0.3,0.5,0,0.8C8.4,9.1,7.7,9.8,7,10.5
		c-0.5,0.5-0.5,0.9-0.1,1.4c0.3,0.4,0.6,0.8,0.9,1.3c0.1,0.2,0.2,0.4,0,0.5C7.7,13.9,7.6,14,7.4,14c-0.1,0-0.3-0.1-0.3-0.2
		c-0.4-0.5-0.8-1-1.1-1.5c-0.5-0.7-0.3-1.7,0.3-2.3C6.9,9.4,7.4,8.8,8,8.2c0.1-0.1,0.1-0.1,0.2-0.1c-1.5-1.5-3-3-4.4-4.4
		c0,0,0,0,0,0C3.1,4.3,2.5,4.8,2,5.4C0.9,6.6,0.6,8.2,1.3,9.6c2.6,5.6,6.7,9.9,12.2,12.7c0.5,0.2,1,0.5,1.5,0.6
		c1.2,0.3,2.3,0,3.2-0.7c0.7-0.6,1.4-1.3,2.1-2c-1.5-1.5-2.9-2.9-4.4-4.4c-0.2,0.2-0.4,0.4-0.6,0.6c-0.4,0.4-0.8,0.8-1.2,1.2
		c-0.7,0.7-1.7,0.8-2.5,0.2c-0.5-0.3-0.9-0.7-1.4-1c-0.3-0.2-0.3-0.5-0.1-0.7c0.2-0.2,0.4-0.2,0.7,0c0.4,0.3,0.9,0.6,1.3,0.9
		c0.5,0.4,0.9,0.3,1.4-0.1c0.7-0.7,1.4-1.4,2.1-2.1c0.3-0.3,0.6-0.3,0.9,0c1.6,1.6,3.2,3.2,4.8,4.8c0.3,0.3,0.3,0.6,0,0.9
		c-0.7,0.7-1.3,1.3-2,2c-0.8,0.7-1.7,1.2-2.8,1.3c0,0-0.1,0-0.1,0C16,24,15.7,24,15.4,24z"/>
	<path class="st1" d="M24,5.5c0.2,2.4-1.6,5.2-4.7,5.7c-1,0.2-2,0-2.9-0.3c-0.1,0-0.2,0-0.3,0c-0.8,0.4-1.6,0.8-2.4,1.2
		c-0.2,0.1-0.4,0.2-0.6,0c-0.2-0.2-0.2-0.4-0.1-0.6c0.3-0.8,0.6-1.7,0.8-2.5c0-0.1,0-0.2,0-0.4c-2.1-3.5-0.1-7.9,3.9-8.6
		c3.1-0.5,6,1.7,6.4,4.8C24,5.1,24,5.4,24,5.5z M14.1,10.8c0.6-0.3,1.1-0.6,1.7-0.8c0.3-0.1,0.5-0.2,0.8,0c0.8,0.4,1.7,0.5,2.6,0.3
		c2.5-0.4,4.2-2.7,3.9-5.2c-0.3-2.7-3-4.6-5.7-4c-3.3,0.8-4.7,4.5-2.8,7.3c0.2,0.2,0.2,0.4,0.1,0.7c-0.2,0.5-0.3,1-0.5,1.5
		C14.1,10.6,14.1,10.7,14.1,10.8z"/>
	<path class="st1" d="M9.3,15.1c0,0.2-0.2,0.5-0.4,0.5c-0.3,0-0.5-0.2-0.5-0.5c0-0.3,0.2-0.5,0.5-0.5C9.1,14.6,9.3,14.8,9.3,15.1z"
		/>
	<path class="st1" d="M15.6,5.1c0.2,0,0.5,0.2,0.5,0.5c0,0.3-0.2,0.5-0.5,0.5c-0.3,0-0.5-0.2-0.5-0.5C15.1,5.4,15.3,5.2,15.6,5.1z"
		/>
	<path class="st1" d="M18.9,5.6c0,0.3-0.2,0.5-0.5,0.5c-0.3,0-0.5-0.2-0.4-0.5c0-0.3,0.2-0.5,0.5-0.5C18.7,5.2,18.9,5.4,18.9,5.6z"
		/>
	<path class="st1" d="M21.2,6.1c-0.3,0-0.5-0.2-0.5-0.4c0-0.3,0.2-0.5,0.5-0.5c0.3,0,0.5,0.2,0.5,0.5C21.7,5.9,21.5,6.1,21.2,6.1z"
		/>
</g>
</svg>
